<?xml version="1.0" encoding="UTF-8" standalone="no"?>
<svg
   viewBox="0 0 339.23 77.94"
   version="1.1"
   id="svg24"
   sodipodi:docname="gempathy-logo - Copy.svg"
   inkscape:version="1.1 (c68e22c387, 2021-05-23)"
   xmlns:inkscape="http://www.inkscape.org/namespaces/inkscape"
   xmlns:sodipodi="http://sodipodi.sourceforge.net/DTD/sodipodi-0.dtd"
   xmlns="http://www.w3.org/2000/svg"
   xmlns:svg="http://www.w3.org/2000/svg">
  <sodipodi:namedview
     id="namedview26"
     pagecolor="#ffffff"
     bordercolor="#666666"
     borderopacity="1.0"
     inkscape:pageshadow="2"
     inkscape:pageopacity="0.0"
     inkscape:pagecheckerboard="0"
     showgrid="false"
     inkscape:zoom="3.095245"
     inkscape:cx="169.45347"
     inkscape:cy="34.084539"
     inkscape:window-width="1920"
     inkscape:window-height="1017"
     inkscape:window-x="-8"
     inkscape:window-y="-8"
     inkscape:window-maximized="1"
     inkscape:current-layer="svg24" />
  <defs
     id="defs4">
    <style
       id="style2">.cls-1{fill:#acddb2;}.cls-2{fill:#959191;}</style>
  </defs>
  <g
     id="Layer_2"
     data-name="Layer 2">
    <g
       id="Logo_3"
       data-name="Logo 3">
      <polygon
         class="cls-1"
         points="20.59 38.97 29.23 40.89 29.23 54.03 20.59 38.97"
         id="polygon6" />
      <polygon
         class="cls-1"
         points="29.23 40.89 37.86 38.97 29.23 54.03 29.23 40.89"
         id="polygon8" />
      <polygon
         class="cls-1"
         points="29.23 40.89 29.23 23.91 20.59 38.97 29.23 40.89"
         id="polygon10" />
      <polygon
         class="cls-1"
         points="29.23 40.89 29.23 23.91 37.86 38.97 29.23 40.89"
         id="polygon12" />
      <path
         class="cls-2"
         d="m 130.75,45.79 c -0.23,0 -0.3,0.12 -0.36,0.47 -0.24,1.28 -0.63,1.94 -1.49,2.32 a 8.91,8.91 0 0 1 -3.1,0.37 c -3.37,0 -3.89,-0.47 -4,-2.63 0,-0.91 0,-3.79 0,-4.86 V 39 c 0,-0.19 0,-0.32 0.2,-0.32 0.79,0 4.06,0 4.68,0.1 1.22,0.12 1.69,0.59 1.85,1.22 a 7.26,7.26 0 0 1 0.13,1.13 c 0,0.15 0.07,0.28 0.3,0.28 0.23,0 0.3,-0.35 0.3,-0.6 0,-0.25 0.1,-1.47 0.13,-2.1 0.13,-1.59 0.26,-2.1 0.26,-2.28 0,-0.18 -0.1,-0.26 -0.23,-0.26 -0.13,0 -0.29,0.16 -0.53,0.41 -0.24,0.25 -0.79,0.41 -1.58,0.47 -0.79,0.06 -4.55,0.07 -5.28,0.07 -0.2,0 -0.23,-0.13 -0.23,-0.35 v -7.94 c 0,-0.22 0.07,-0.31 0.23,-0.31 0.66,0 4.13,0.06 4.69,0.12 1.65,0.19 2,0.57 2.21,1.13 a 3.36,3.36 0 0 1 0.2,1.13 c 0,0.28 0.06,0.44 0.29,0.44 0.23,0 0.3,-0.19 0.33,-0.35 0.07,-0.37 0.13,-1.75 0.17,-2.07 a 20,20 0 0 1 0.26,-2 c 0,-0.16 0,-0.28 -0.2,-0.28 a 3.25,3.25 0 0 0 -0.52,0.12 14.26,14.26 0 0 1 -1.42,0.19 c -0.63,0 -7.2,0 -8.25,0 -0.47,0 -1.22,0 -2.08,-0.06 -0.86,-0.06 -1.78,0 -2.68,0 -0.49,0 -0.72,0.06 -0.72,0.28 0,0.22 0.2,0.28 0.56,0.28 a 7.55,7.55 0 0 1 1.29,0.09 c 1.09,0.22 1.35,0.73 1.42,1.79 0.07,1.06 0.06,1.88 0.06,6.65 v 5.51 c 0,2.89 0,5.36 -0.16,6.68 -0.14,0.91 -0.3,1.6 -1,1.72 a 5.8,5.8 0 0 1 -1.19,0.13 c -0.39,0 -0.53,0.09 -0.53,0.25 0,0.16 0.23,0.31 0.66,0.31 0.66,0 1.52,-0.06 2.28,-0.06 0.76,0 1.52,0 1.88,0 1,0 2,0 3.43,0.09 1.43,0.09 3.24,0.09 5.71,0.09 1.26,0 1.55,0 1.78,-0.81 a 22.83,22.83 0 0 0 0.43,-3.48 C 131,46 131,45.79 130.75,45.79 Z m -26.9,-7 c -1.09,0 -2.84,0.09 -3.86,0.09 -1.02,0 -3.07,-0.09 -4.78,-0.09 -0.47,0 -0.7,0.06 -0.7,0.31 0,0.25 0.2,0.25 0.5,0.25 a 6.55,6.55 0 0 1 1.29,0.1 c 1.08,0.21 1.38,0.72 1.41,1.78 0.03,1.06 0,2.13 0,3.7 v 3 a 1.1,1.1 0 0 1 -0.63,1.16 7.76,7.76 0 0 1 -2.8,0.34 c -7,0 -11.49,-5 -11.49,-11.78 0,-3.86 1.19,-6.21 3,-7.68 A 9.85,9.85 0 0 1 92.4,28 a 10.9,10.9 0 0 1 7.36,2.44 4.27,4.27 0 0 1 1.12,2.6 c 0,0.25 0.1,0.41 0.33,0.41 0.23,0 0.37,-0.16 0.37,-0.66 a 40.4,40.4 0 0 1 0.23,-5.14 c 0,-0.22 -0.07,-0.34 -0.47,-0.38 a 23.64,23.64 0 0 1 -2.6,-0.34 41.18,41.18 0 0 0 -5.84,-0.5 16.74,16.74 0 0 0 -8.88,2 11.62,11.62 0 0 0 -5.74,10.27 c 0,8.65 7.16,12.3 15.24,12.3 a 19.67,19.67 0 0 0 8,-1.41 c 0.39,-0.22 0.43,-0.28 0.43,-1.13 V 45 c 0,-1.56 0,-2.82 0,-3.76 0,-1.09 0.36,-1.63 1.25,-1.78 a 4.89,4.89 0 0 1 0.89,-0.1 c 0.23,0 0.43,-0.06 0.43,-0.25 0,-0.19 -0.24,-0.31 -0.67,-0.31 z M 338.63,26.86 c -0.62,0 -2.8,0.09 -3.53,0.09 -1,0 -2,-0.09 -3.1,-0.09 -0.4,0 -0.56,0.06 -0.56,0.28 0,0.22 0.3,0.25 0.59,0.31 a 0.77,0.77 0 0 1 0.7,0.79 4,4 0 0 1 -0.47,1.63 c -0.46,1 -4.62,7.86 -4.94,8.61 -0.53,-0.87 -5.15,-8.43 -5.61,-9.37 a 2.67,2.67 0 0 1 -0.4,-1.06 0.58,0.58 0 0 1 0.46,-0.57 c 0.5,-0.12 0.73,-0.15 0.73,-0.34 0,-0.19 -0.17,-0.28 -0.5,-0.28 -1.48,0 -2.84,0.09 -3.53,0.09 -1.09,0 -3.56,-0.09 -4.16,-0.09 -0.39,0 -0.62,0.09 -0.62,0.28 0,0.19 0.23,0.28 0.49,0.28 a 3.49,3.49 0 0 1 1.39,0.41 7.82,7.82 0 0 1 2.27,2.29 c 1.16,1.63 5.58,8.52 5.81,9 a 6.37,6.37 0 0 1 0.76,3.29 V 45 c 0,0.5 0,1.82 -0.1,3.14 -0.06,0.91 -0.36,1.6 -1,1.72 a 5.73,5.73 0 0 1 -1.16,0.13 c -0.36,0 -0.52,0.09 -0.52,0.25 0,0.16 0.26,0.31 0.72,0.31 1.22,0 3.3,-0.09 4.13,-0.09 0.83,0 3,0.09 5.05,0.09 0.43,0 0.69,-0.09 0.69,-0.31 0,-0.22 -0.22,-0.24 -0.55,-0.24 a 15.28,15.28 0 0 1 -1.65,-0.13 c -1,-0.12 -1.29,-0.81 -1.35,-1.72 -0.1,-1.32 -0.1,-2.64 -0.1,-3.14 v -2.58 a 7.22,7.22 0 0 1 0.49,-3.13 100.48,100.48 0 0 1 6.31,-10 4.81,4.81 0 0 1 1.78,-1.53 3.72,3.72 0 0 1 1.45,-0.38 c 0.36,0 0.63,-0.09 0.63,-0.31 0,-0.22 -0.23,-0.22 -0.6,-0.22 z m -73.86,-0.22 a 9,9 0 0 0 -0.89,0.15 15.3,15.3 0 0 1 -2.27,0.16 h -13.07 c -1.09,0 -2.34,-0.06 -3.3,-0.16 a 7.7,7.7 0 0 1 -1.42,-0.37 c -0.2,0 -0.3,0.19 -0.4,0.59 -0.1,0.4 -0.69,3.11 -0.69,3.61 0,0.34 0.07,0.5 0.3,0.5 0.23,0 0.29,-0.13 0.36,-0.38 a 3.71,3.71 0 0 1 0.56,-1.09 c 0.5,-0.69 1.29,-0.85 3.2,-0.91 l 4.92,-0.13 v 12.85 c 0,2.89 0,5.36 -0.17,6.68 -0.09,0.91 -0.29,1.6 -1,1.72 a 5.89,5.89 0 0 1 -1.19,0.13 c -0.4,0 -0.53,0.09 -0.53,0.25 0,0.16 0.23,0.31 0.66,0.31 1.32,0 3.4,-0.09 4.16,-0.09 0.92,0 3,0.09 5.18,0.09 0.36,0 0.63,-0.09 0.63,-0.31 0,-0.22 -0.17,-0.25 -0.53,-0.25 a 15.05,15.05 0 0 1 -1.68,-0.13 c -1,-0.12 -1.19,-0.81 -1.29,-1.69 -0.17,-1.35 -0.17,-3.82 -0.17,-6.71 V 28.61 l 4.16,0.1 c 2.94,0.06 3.83,0.94 3.9,1.75 v 0.35 c 0,0.47 0.1,0.62 0.36,0.62 0.26,0 0.27,-0.19 0.3,-0.5 0,-0.81 0.1,-3 0.1,-3.63 0.04,-0.48 0.04,-0.66 -0.19,-0.66 z m 39,23.35 a 15.24,15.24 0 0 1 -1.68,-0.13 c -1,-0.12 -1.19,-0.81 -1.29,-1.69 -0.16,-1.35 -0.16,-3.82 -0.16,-6.71 V 36 c 0,-4.77 0,-5.65 0.06,-6.65 0.06,-1 0.33,-1.63 1.22,-1.79 a 6.56,6.56 0 0 1 1,-0.09 c 0.4,0 0.59,-0.06 0.59,-0.28 0,-0.22 -0.23,-0.28 -0.69,-0.28 -1.29,0 -3.36,0.09 -4.16,0.09 -0.8,0 -3,-0.09 -4.75,-0.09 -0.46,0 -0.69,0.06 -0.69,0.28 0,0.22 0.2,0.28 0.56,0.28 a 7.55,7.55 0 0 1 1.29,0.09 c 1.09,0.22 1.35,0.73 1.42,1.79 0.07,1.06 0.06,1.88 0.06,6.65 v 0.65 a 0.19,0.19 0 0 1 -0.2,0.22 H 283.7 a 0.19,0.19 0 0 1 -0.2,-0.22 V 36 c 0,-4.77 0,-5.65 0.07,-6.65 0.07,-1 0.33,-1.63 1.22,-1.79 a 6.33,6.33 0 0 1 0.95,-0.09 c 0.4,0 0.6,-0.06 0.6,-0.28 0,-0.22 -0.23,-0.28 -0.69,-0.28 -1.29,0 -3.37,0.09 -4.16,0.09 -0.79,0 -3,-0.09 -4.75,-0.09 -0.47,0 -0.7,0.06 -0.7,0.28 0,0.22 0.2,0.28 0.56,0.28 a 7.39,7.39 0 0 1 1.29,0.09 c 1.09,0.22 1.35,0.73 1.42,1.79 0.07,1.06 0.07,1.88 0.07,6.65 v 5.51 c 0,2.89 0,5.36 -0.17,6.68 -0.13,0.91 -0.3,1.6 -1,1.72 a 5.69,5.69 0 0 1 -1.18,0.13 c -0.4,0 -0.53,0.09 -0.53,0.25 0,0.16 0.23,0.31 0.66,0.31 1.32,0 3.4,-0.09 4.16,-0.09 0.92,0 3,0.09 5.14,0.09 0.4,0 0.66,-0.09 0.66,-0.31 0,-0.22 -0.12,-0.29 -0.48,-0.29 a 15.24,15.24 0 0 1 -1.69,-0.13 c -1,-0.12 -1.19,-0.81 -1.28,-1.69 -0.17,-1.35 -0.17,-3.82 -0.17,-6.71 V 38.7 c 0,-0.15 0.1,-0.18 0.2,-0.18 h 12.6 a 0.18,0.18 0 0 1 0.2,0.18 v 2.76 c 0,2.89 0,5.36 -0.16,6.68 -0.14,0.91 -0.3,1.6 -1,1.72 a 5.8,5.8 0 0 1 -1.19,0.13 c -0.39,0 -0.53,0.09 -0.53,0.25 0,0.16 0.23,0.31 0.7,0.31 1.28,0 3.36,-0.09 4.12,-0.09 0.93,0 3,0.09 5.15,0.09 0.4,0 0.66,-0.09 0.66,-0.31 0,-0.22 -0.13,-0.24 -0.49,-0.24 z m -128.45,0.06 a 7,7 0 0 1 -2.05,-0.31 c -1,-0.29 -1.32,-1.2 -1.62,-3.17 l -3,-19.18 c -0.1,-0.66 -0.29,-1 -0.59,-1 -0.3,0 -0.46,0.25 -0.73,0.75 l -9,17.65 -9,-17.43 c -0.43,-0.82 -0.63,-1 -0.89,-1 -0.26,0 -0.47,0.28 -0.56,0.81 l -3.27,20.19 c -0.17,1.06 -0.43,2.28 -1.35,2.47 a 4.24,4.24 0 0 1 -1,0.1 c -0.33,0 -0.53,0.06 -0.53,0.22 0,0.16 0.26,0.34 0.59,0.34 1.06,0 2.64,-0.09 3.27,-0.09 0.63,0 2.08,0.09 3.46,0.09 0.5,0 0.8,-0.06 0.8,-0.34 0,-0.28 -0.24,-0.22 -0.5,-0.22 a 6.51,6.51 0 0 1 -1.39,-0.16 c -0.56,-0.13 -1,-0.41 -1,-1 a 13.16,13.16 0 0 1 0.09,-1.48 l 1.72,-12.22 h 0.13 c 1.16,2.35 3.14,6 3.43,6.71 0.4,0.88 3,5.67 3.8,7.11 0.53,0.94 0.86,1.57 1.15,1.57 0.29,0 0.47,-0.28 1.22,-1.76 l 7.2,-14 h 0.13 l 2,13.63 c 0.13,0.88 0,1.28 -0.16,1.35 -0.16,0.07 -0.37,0.19 -0.37,0.34 0,0.15 0.2,0.28 1,0.35 1.32,0.09 5.87,0.15 6.7,0.15 0.46,0 0.86,-0.09 0.86,-0.34 0,-0.25 -0.26,-0.13 -0.55,-0.13 z m 21.2,-23.19 c -1.52,0 -3.43,0.09 -4.79,0.09 -0.92,0 -3,-0.09 -4.75,-0.09 -0.49,0 -0.72,0.06 -0.72,0.28 0,0.22 0.19,0.28 0.56,0.28 a 7.35,7.35 0 0 1 1.28,0.09 c 1.09,0.22 1.36,0.73 1.42,1.79 0.06,1.06 0.07,1.88 0.07,6.65 v 5.51 c 0,2.89 0,5.36 -0.17,6.68 -0.13,0.91 -0.29,1.6 -0.95,1.72 a 5.89,5.89 0 0 1 -1.19,0.13 c -0.4,0 -0.53,0.09 -0.53,0.25 0,0.16 0.23,0.31 0.66,0.31 1.32,0 3.4,-0.09 4.16,-0.09 0.76,0 2.94,0.09 5.11,0.09 0.37,0 0.63,-0.09 0.63,-0.31 0,-0.22 -0.16,-0.25 -0.53,-0.25 a 15.24,15.24 0 0 1 -1.68,-0.13 c -1,-0.12 -1.19,-0.81 -1.29,-1.69 -0.16,-1.35 -0.16,-3.82 -0.16,-6.71 V 28.92 c 0,-0.34 0.1,-0.53 0.26,-0.59 a 5.35,5.35 0 0 1 4.59,1.1 5.84,5.84 0 0 1 1.95,4.7 c 0,3.19 -2.58,5.17 -4.43,5.17 -0.69,0 -0.92,0.09 -0.92,0.34 0,0.25 0.23,0.25 0.4,0.29 a 5.23,5.23 0 0 0 0.69,0 c 4.68,0 8.12,-3.14 8.12,-7.59 a 5.35,5.35 0 0 0 -1.65,-3.73 c -0.54,-0.44 -2.03,-1.75 -6.15,-1.75 z M 236.73,50 a 7.12,7.12 0 0 1 -1.39,-0.13 c -0.69,-0.16 -1.65,-0.59 -2.91,-3.42 -2.11,-4.76 -7.39,-17.3 -8.18,-19 -0.33,-0.72 -0.53,-1 -0.82,-1 -0.29,0 -0.53,0.34 -0.93,1.25 l -8.28,19.4 c -0.66,1.57 -1.29,2.64 -2.8,2.82 a 8.47,8.47 0 0 1 -1,0.07 c -0.26,0 -0.39,0.06 -0.39,0.25 0,0.19 0.19,0.31 0.62,0.31 1.72,0 3.53,-0.09 3.9,-0.09 1,0 2.44,0.09 3.49,0.09 0.37,0 0.57,-0.06 0.57,-0.31 0,-0.25 -0.1,-0.25 -0.5,-0.25 h -0.49 c -1,0 -1.32,-0.41 -1.32,-1 a 5.86,5.86 0 0 1 0.49,-1.91 l 1.78,-4.29 c 0.07,-0.19 0.13,-0.25 0.3,-0.25 h 7.36 a 0.32,0.32 0 0 1 0.33,0.22 l 2.64,6.45 a 0.52,0.52 0 0 1 -0.3,0.73 c -0.33,0 -0.46,0.09 -0.46,0.28 0,0.19 0.4,0.22 1,0.25 2.64,0.06 5,0.06 6.24,0.06 1.24,0 1.51,-0.06 1.51,-0.31 0,-0.25 -0.19,-0.22 -0.46,-0.22 z m -11.16,-9 h -6.07 c -0.13,0 -0.17,-0.09 -0.13,-0.22 l 3,-7.68 c 0,-0.12 0.1,-0.28 0.2,-0.28 0.1,0 0.13,0.16 0.17,0.28 l 3,7.71 c 0.03,0.09 0,0.19 -0.17,0.19 z"
         id="path14" />
      <path
         class="cls-2"
         d="M45.52,53.88c-1.42,10-5.35,18.56-10.72,24C47.67,72.22,57,58.8,58.46,42.9H40.2C46.45,45.15,46.29,48.26,45.52,53.88Z"
         id="path16" />
      <path
         class="cls-2"
         d="M58.19,32.37C56.07,17.51,46.94,5.27,34.71,0,41.56,6.85,46.1,18.79,46.1,32.37Z"
         id="path18" />
      <path
         class="cls-2"
         d="M23.94,0C9.94,6,0,21.21,0,39s9.94,32.94,23.94,39c-6.85-6.85-11.39-18.79-11.39-32.37V32.37C12.55,18.79,17.09,6.86,23.94,0Z"
         id="path20" />
    </g>
  </g>
</svg>
