<?xml version="1.0" encoding="UTF-8" standalone="no"?>
<svg
   id="e4e579b4-5122-4d29-876c-085905a2d49a"
   data-name="Layer 1"
   width="149.3708"
   height="235.17944"
   viewBox="0 0 149.3708 235.17945"
   version="1.1"
   sodipodi:docname="freelancer.svg"
   inkscape:version="1.1 (c68e22c387, 2021-05-23)"
   xmlns:inkscape="http://www.inkscape.org/namespaces/inkscape"
   xmlns:sodipodi="http://sodipodi.sourceforge.net/DTD/sodipodi-0.dtd"
   xmlns="http://www.w3.org/2000/svg"
   xmlns:svg="http://www.w3.org/2000/svg">
  <defs
     id="defs173" />
  <sodipodi:namedview
     id="namedview171"
     pagecolor="#ffffff"
     bordercolor="#666666"
     borderopacity="1.0"
     inkscape:pageshadow="2"
     inkscape:pageopacity="0.0"
     inkscape:pagecheckerboard="0"
     showgrid="false"
     inkscape:zoom="1.6152672"
     inkscape:cx="-48.908317"
     inkscape:cy="119.48488"
     inkscape:window-width="1271"
     inkscape:window-height="1040"
     inkscape:window-x="680"
     inkscape:window-y="225"
     inkscape:window-maximized="0"
     inkscape:current-layer="e4e579b4-5122-4d29-876c-085905a2d49a" />
  <path
     d="M 148.98134,185 H 0.593917 a 0.38946831,1 0 0 1 0,-2 H 148.98134 a 0.38946831,1 0 0 1 0,2 z"
     fill="#3f3d56"
     id="path114"
     style="stroke-width:0.624073" />
  <circle
     cx="82.800003"
     cy="27"
     r="27"
     fill="#2f2e41"
     id="circle116" />
  <polygon
     points="219.556,358.003 220.612,376.067 173.405,378.826 172.69,366.588 "
     fill="#ffb8b8"
     id="polygon118"
     transform="translate(-116.25906,-178.5)" />
  <path
     d="m 59.416371,179.14105 1.37973,23.60357 -14.8615,0.86872 -2.24845,-38.46507 v 0 a 14.88686,14.88686 0 0 1 15.73022,13.99278 z"
     fill="#2f2e41"
     id="path120" />
  <polygon
     points="145.768,362.666 157.257,348.688 193.789,378.714 186.004,388.185 "
     fill="#ffb8b8"
     id="polygon122"
     transform="translate(-116.25906,-178.5)" />
  <path
     d="m 61.478431,214.22607 15.01318,-18.26572 11.50063,9.45274 -24.46591,29.76635 v 0 a 14.88686,14.88686 0 0 1 -2.0479,-20.95337 z"
     fill="#2f2e41"
     id="path124" />
  <path
     d="m 55.127571,156.16999 -5.31975,25.07884 a 4,4 0 0 0 3.84843,4.8295 l 52.297849,0.84351 a 4,4 0 0 0 4.00364,-4.69462 l -4.57453,-25.92236 A 4,4 0 0 0 101.44407,153 H 59.040511 a 4,4 0 0 0 -3.91294,3.16999 z"
     fill="#2f2e41"
     id="path126" />
  <path
     d="M 63.800001,165 C 63.800001,165 12.8,133 2.8,150 c -5,8.5 -2.5,16.75 1.25,22.875 a 34.63053,34.63053 0 0 0 14.4025,12.89112 L 59.800001,206 l 15,-16 -10,-9 z"
     fill="#2f2e41"
     id="path128" />
  <path
     d="m 89.800001,160 c 0,0 65.999999,-19 52.999999,17 -13,36 -61.999999,22 -61.999999,22 l -5,-15 17,-12 z"
     fill="#2f2e41"
     id="path130" />
  <circle
     cx="83.13858"
     cy="33.165344"
     r="24.561029"
     fill="#ffb8b8"
     id="circle132" />
  <path
     d="m 84.425481,163.96876 a 131.99386,131.99386 0 0 1 -30.25708,-3.98633 l -0.29248,-0.0801 -13.70556,-63.04493 a 23.2247,23.2247 0 0 1 14.93286,-26.94335 80.45969,80.45969 0 0 1 51.299559,-1.02442 h 2.4e-4 a 23.46956,23.46956 0 0 1 15.635,27.76465 l -15.30835,63.19531 -0.21557,0.10254 c -6.36181,3.01366 -14.317159,4.0166 -22.088619,4.0166 z"
     fill="#cccccc"
     id="path134" />
  <path
     d="m 66.015321,168.86627 a 10.05573,10.05573 0 0 1 14.47536,-5.31221 l 26.986509,-23.42452 2.44163,18.40848 -26.001169,19.4221 a 10.11027,10.11027 0 0 1 -17.90233,-9.09385 z"
     fill="#ffb8b8"
     id="path136" />
  <path
     d="m 91.753121,173.97559 a 4.53353,4.53353 0 0 1 -1.29639,-0.19043 4.45263,4.45263 0 0 1 -2.9624,-2.81641 l -3.25732,-9.22851 a 4.472,4.472 0 0 1 1.30224,-4.90235 l 36.768799,-22.07422 -14.49411,-64.66113 0.36865,-0.0889 c 0.14991,-0.0371 15.00025,-3.417 21.0857,12.81055 4.26147,11.36524 20.03149,36.07715 18.91894,52.77637 a 14.88461,14.88461 0 0 1 -12.322,13.72754 l -41.388179,23.71289 a 4.456,4.456 0 0 1 -2.72393,0.93457 z"
     fill="#cccccc"
     id="path138" />
  <path
     d="m 95.877031,166.67269 a 10.05575,10.05575 0 0 0 -14.47536,-5.31221 l -26.9865,-23.42452 -2.44163,18.40848 26.00117,19.4221 a 10.11027,10.11027 0 0 0 17.90232,-9.09385 z"
     fill="#ffb8b8"
     id="path140" />
  <path
     d="m 72.846871,173.97559 a 4.456,4.456 0 0 1 -2.72388,-0.93457 L 25.73481,151.32813 a 14.88461,14.88461 0 0 1 -12.322,-13.72754 c -1.11255,-16.69922 17.657471,-43.41113 21.918941,-54.77637 6.085,-16.22754 20.93555,-12.84863 21.0857,-12.81055 l 0.36865,0.0889 -17.49416,66.66113 39.7688,20.07422 a 4.472,4.472 0 0 1 1.30224,4.90235 l -3.25732,9.22851 a 4.45263,4.45263 0 0 1 -2.9624,2.81641 4.5348,4.5348 0 0 1 -1.29639,0.19043 z"
     fill="#cccccc"
     id="path142" />
  <path
     d="M 125.80002,183.99992 H 36.800021 a 7.00818,7.00818 0 0 1 -7.000001,-7 v -49 a 7.00818,7.00818 0 0 1 7.000001,-7 h 88.999999 a 7.00817,7.00817 0 0 1 7,7 v 49 a 7.00818,7.00818 0 0 1 -7,7 z"
     fill="#6c63ff"
     id="path144"
     style="fill:#4d4d4d" />
  <path
     d="m 58.331551,32.16569 c -1.45566,-3.6923 0.93266,-8.09242 4.47568,-9.881 3.54302,-1.78858 7.81846,-1.44843 11.60824,-0.26964 3.18484,0.99063 6.16976,2.52588 9.27688,3.73845 a 20.76152,20.76152 0 0 0 9.75287,1.73691 c 3.31428,-0.37431 6.612909,-2.23278 7.969069,-5.28 1.40574,-3.15859 0.44963,-7.01316 -1.715159,-9.7088 a 18.79922,18.79922 0 0 0 -8.61171,-5.5348 c -7.3075,-2.57443 -15.74829,-2.64969 -22.53234,1.0925 -6.78405,3.74219 -11.39446,11.7102 -9.99219,19.33"
     fill="#2f2e41"
     id="path148" />
  <text
     xml:space="preserve"
     style="font-style:normal;font-weight:normal;font-size:40px;line-height:1.25;font-family:sans-serif;fill:#cccccc;fill-opacity:1;stroke:none"
     x="40.582474"
     y="167.50522"
     id="text7474"><tspan
       sodipodi:role="line"
       id="tspan7472"
       x="40.582474"
       y="167.50522">&lt;...&gt;</tspan></text>
</svg>
