<?xml version="1.0" encoding="UTF-8" standalone="no"?>
<svg
   version="1.1"
   preserveAspectRatio="xMidYMid meet"
   viewBox="0 0 1600.7976 1163.4586"
   width="1600.7977"
   height="1163.4586"
   id="svg536"
   sodipodi:docname="showcase-desktop.svg"
   inkscape:version="1.1 (c68e22c387, 2021-05-23)"
   xmlns:inkscape="http://www.inkscape.org/namespaces/inkscape"
   xmlns:sodipodi="http://sodipodi.sourceforge.net/DTD/sodipodi-0.dtd"
   xmlns="http://www.w3.org/2000/svg"
   xmlns:svg="http://www.w3.org/2000/svg">
  <sodipodi:namedview
     id="namedview538"
     pagecolor="#ffffff"
     bordercolor="#666666"
     borderopacity="1.0"
     inkscape:pageshadow="2"
     inkscape:pageopacity="0.0"
     inkscape:pagecheckerboard="0"
     showgrid="false"
     inkscape:zoom="7.1506173"
     inkscape:cx="1291.0074"
     inkscape:cy="862.3731"
     inkscape:window-width="1920"
     inkscape:window-height="1017"
     inkscape:window-x="-8"
     inkscape:window-y="-8"
     inkscape:window-maximized="1"
     inkscape:current-layer="g532" />
  <defs
     id="defs338">
    <rect
       x="943.13536"
       y="419.5442"
       width="13.425414"
       height="154.39227"
       id="rect7750" />
    <rect
       x="163.75774"
       y="359.95056"
       width="231.00124"
       height="177.20644"
       id="rect82023" />
    <rect
       x="173.25093"
       y="352.03955"
       width="218.34363"
       height="189.86403"
       id="rect77639" />
    <rect
       x="-118.66502"
       y="193.02843"
       width="178.78864"
       height="102.84302"
       id="rect24188" />
    <rect
       x="382.89246"
       y="455.67368"
       width="82.274414"
       height="49.048206"
       id="rect7890" />
    <rect
       x="169.29543"
       y="89.394318"
       width="227.83684"
       height="359.15945"
       id="rect3128" />
    <path
       d="m 515.39,608.27 c -24.3,-3.81 -47.67,-7.04 -70.1,-9.71 5.18,-10.37 8.06,-16.13 8.64,-17.28 -3,-1 -15.99,9 -15.99,9 1.1,-5 9.89,-44.98 10.99,-49.97 -14.99,2 -21.99,52.97 -21.99,52.97 -1.13,-1.14 -6.79,-6.8 -16.99,-16.99 5.02,11.54 7.81,17.95 8.37,19.23 -68.64,-7.21 -127.87,-9.46 -177.66,-8.95 0.74,-1.47 6.65,-13.3 7.39,-14.78 -3,-1 -15.99,8.99 -15.99,8.99 1.1,-4.99 9.89,-44.97 10.99,-49.97 -14.99,2 -21.98,52.97 -21.98,52.97 -1.14,-1.13 -6.8,-6.79 -16.99,-16.99 5.31,12.23 8.26,19.02 8.86,20.38 -34.11,0.99 -68.14,3.73 -101.97,8.21 7.38,-22.99 33.14,-45.08 33.14,-45.08 -19.81,6.16 -30.11,16.2 -35.44,25.51 -1.08,-47.21 6.18,-94.25 21.45,-138.94 0,0 -39.97,89.95 -33.98,149.91 0.08,1.07 0.69,9.59 0.76,10.65 -34.78,5.43 -52.23,10.84 -52.23,10.84 94.15,0 376.58,0 470.72,0 z"
       id="abDm5CwAZK" />
    <path
       d="m 751.75,605.58 c 0,0 0,0 0,0 0,1.2 0,1.87 0,2 0,0 0,0 0,0 -514.39,0 -800.16,0 -857.31,0 0,0 0,0 0,0 0,-1.2 0,-1.87 0,-2 0,0 0,0 0,0 514.38,0 800.15,0 857.31,0 z"
       id="c2mKqsVLzx" />
    <path
       d="m 425.92,226.59 c 0,1.26 -1.03,2.28 -2.29,2.29 -0.11,0 -0.65,0 -1.63,0 0,205.16 0,319.14 0,341.94 0,19.7 -15.97,35.68 -35.68,35.68 -21.36,0 -192.29,0 -213.66,0 -19.7,0 -35.67,-15.98 -35.67,-35.68 0,0 0,0 0,0 0,-22 0,-131.98 0,-329.95 -0.7,0 -1.1,0 -1.18,0 -0.89,0 -1.61,-0.72 -1.62,-1.61 0,-3.74 0,-33.62 0,-37.36 0,-0.89 0.73,-1.62 1.62,-1.62 0,0 0,0 0,0 0.08,0 0.48,0 1.18,0 v -14.07 c -0.71,0 -1.11,0 -1.19,0 -0.93,0 -1.69,-0.76 -1.69,-1.7 0,-3.68 0,-33.16 0,-36.85 0.01,-0.93 0.76,-1.68 1.69,-1.68 0.08,0 0.48,0 1.19,0 v -19.21 c -0.72,0 -1.13,0 -1.21,0 -0.82,0 -1.49,-0.67 -1.5,-1.5 0,0 0,0 0,0 0,-2.01 0,-18.1 0,-20.11 0,-0.83 0.67,-1.51 1.5,-1.51 0.08,0 0.49,0 1.21,0 0,-24.43 0,-38 0,-40.71 0,-19.7 15.97,-35.67 35.67,-35.67 21.37,0 192.3,0 213.66,0 19.7,0 35.68,15.96 35.68,35.67 0,6.38 0,38.28 0,95.72 0.98,0 1.52,0 1.63,0 1.26,0 2.29,1.02 2.29,2.29 0,0 0,59.07 0,65.64 z"
       id="emlHQ4o4" />
    <path
       d="m 289.79,45.56 c 1.69,0 2.54,0.85 2.54,2.54 0,1.8 0,2.8 0,3 0,1.7 -0.85,2.54 -2.54,2.54 -20.84,0 -32.41,0 -34.72,0 -1.7,0 -2.54,-0.84 -2.54,-2.54 0,-1.8 0,-2.8 0,-3 0,-1.69 0.84,-2.54 2.54,-2.54 20.83,0 32.4,0 34.72,0 z"
       id="b4jtMOPQv4" />
    <path
       d="m 302.93,45.02 c -2.53,0 -4.59,2.05 -4.59,4.58 0,2.54 2.06,4.59 4.59,4.59 2.53,0 4.58,-2.05 4.58,-4.59 0,-2.53 -2.05,-4.58 -4.58,-4.58 z"
       id="aL7e848Ep" />
    <path
       d="m 404.92,573.78 c 0,6.63 -2.91,12.92 -7.96,17.22 -4.09,3.49 -9.3,5.4 -14.68,5.4 -20.45,0 -184.07,0 -204.53,0 -3.64,0.01 -7.22,-0.86 -10.45,-2.54 -0.76,-0.39 -1.49,-0.83 -2.2,-1.3 -6.24,-4.22 -9.98,-11.25 -9.98,-18.78 0,-50.38 0,-453.41 0,-503.79 0,-12.5 10.13,-22.63 22.63,-22.63 0,0 0,0 0,0 2.04,0 12.25,0 30.61,0 0,2.35 0,3.66 0,3.92 0,10.3 8.35,18.64 18.64,18.64 10.41,0 93.62,0 104.02,0 10.29,0 18.64,-8.34 18.64,-18.64 0,-0.26 0,-1.57 0,-3.92 19.57,0 30.45,0 32.62,0 12.5,-0.01 22.63,10.12 22.64,22.62 0,0 0,0.01 0,0.01 0,0 0,453.41 0,503.79 z"
       id="b45M0ctV" />
    <path
       d="m 422.71,288.51 c 0,17.48 0,27.19 0,29.13 0,0 2.34,32.64 15.15,48.95 0,0 20.98,29.72 23.9,23.31 -0.24,-1.41 -1.44,-8.44 -3.59,-21.1 l -12.15,-11.53 -6.41,-36.13 -1.75,-32.63 z"
       id="j8y39JXUT" />
    <path
       d="m 551.49,573.45 -17.48,6.41 V 554.8 l 17.48,-2.91 v 0 z"
       id="b1np8zB3gN" />
    <path
       d="m 527.6,575.78 -16.31,6.99 -3.5,-25.63 8.16,-7.58 v 0 z"
       id="a3i4WE4pnI" />
    <path
       d="m 559.65,559.47 c 0,0 -25.64,11.65 -25.64,4.08 0,-7.58 -13.4,-106.06 -13.4,-106.06 -0.86,-3.38 -5.13,-20.27 -12.82,-50.69 v 69.92 c 8.04,47.55 12.51,73.97 13.4,79.25 0,0 -12.82,16.9 -22.14,6.99 -1.98,-7.75 -17.83,-69.75 -19.81,-77.5 0,0 -26.22,-117.7 -25.06,-127.03 0,0 60.02,-51.27 90.9,-9.9 2.92,42.19 23.31,210.35 14.57,210.94 z"
       id="a2WgxOeSbr" />
    <path
       d="m 555.57,571.12 c 0.88,1.05 7.87,9.44 8.74,10.49 0,0 22.54,18.66 6.55,22.66 -16.49,4.12 -26.36,-0.26 -26.36,-0.26 0,0 -2.91,-1.75 -5.24,-1.75 -2.34,0 -7.58,-4.08 -7.58,-5.25 0,-1.16 1.75,-21.81 1.75,-21.81 1.35,-0.66 2.96,-0.43 4.08,0.58 1.75,1.75 2.91,-1.16 2.91,-1.16 3.03,-0.7 4.66,-9.91 15.15,-3.5 z"
       id="g2AWVZiTiR" />
    <path
       d="m 522.36,572.29 c 0,0 3.3,1.16 3.69,0 0.39,-1.17 3.3,-1.75 3.3,4.66 0,6.41 3.16,22.39 0.25,22.98 -2.91,0.58 -5.83,2.33 -5.24,4.66 0.58,2.33 -3.17,2.66 -16.57,2.08 -13.4,-0.59 -13.99,-5.83 -13.99,-5.83 0,0 0,-7.58 3.5,-11.66 3.5,-4.07 8.74,-18.06 8.74,-18.06 3.26,0.23 11.07,-8.74 16.32,1.17 z"
       id="bpRLjLCd" />
    <path
       d="m 484.48,189.45 c 0,0 -2.91,21.56 15.73,29.13 0,0 -41.37,32.64 -47.19,18.07 0,0 1.16,-19.23 1.16,-19.23 0,0 5.83,-5.83 0.58,-21.56 5.95,-1.28 23.78,-5.13 29.72,-6.41 z"
       id="c1bfKz33G" />
    <path
       d="m 465.83,153.32 c -14.16,0 -25.63,11.48 -25.63,25.64 0,14.16 11.47,25.64 25.63,25.64 14.16,0 25.64,-11.48 25.64,-25.64 0,-14.16 -11.48,-25.64 -25.64,-25.64 z"
       id="e2nfQtBE2F" />
    <path
       d="m 495.55,225.58 c 0,0 -17.48,9.32 -34.38,2.33 0,0 -16.31,23.31 -16.31,23.31 0.58,1.51 3.49,9.09 8.74,22.72 l 60.6,-5.83 -4.08,-34.96 c -7.77,-4.04 -12.63,-6.56 -14.57,-7.57 z"
       id="fYBGzJOTd" />
    <path
       d="m 501.38,216.84 c 1.86,0.58 11.19,3.49 27.97,8.74 l 6.99,9.9 c -4.89,43.01 -7.61,66.9 -8.16,71.68 0,0 15.15,14.56 15.15,22.72 0,0 18.65,36.13 9.33,32.63 0,0 -26.22,-15.73 -26.22,-15.73 0,0 -42.54,1.75 -55.94,13.4 0,0 -18.65,8.16 -18.65,8.16 0,0 -13.99,-60.6 -14.57,-69.92 0,0 -16.9,-65.27 -16.9,-65.27 1.95,-1.09 11.66,-6.52 29.14,-16.31 l 7.42,-8.42 20.55,32.89 c 11.19,-13.64 17.4,-21.21 18.65,-22.73 0,0 -9.22,-7.24 -9.27,-12.94 6.28,1.33 11.62,5.45 14.51,11.2 z"
       id="l19goAMcvH" />
    <path
       d="m 545.08,280.35 c 2.1,11.19 3.27,17.4 3.5,18.65 0,0 15.73,58.27 13.4,78.08 0,0 1.75,44.29 -8.16,39.04 -9.9,-5.24 -4.66,-37.29 -4.66,-37.29 -0.93,-3.85 -5.59,-23.08 -13.98,-57.69 l -7.58,-33.8 z"
       id="axLiAbGAK" />
    <path
       d="m 530.51,231.99 c 3.5,2.09 5.44,3.26 5.83,3.49 0,0 22.14,46.04 16.9,49.53 -5.24,3.5 -27.97,11.07 -27.97,11.07 0.7,-8.54 2.45,-29.91 5.24,-64.09 z"
       id="f2qwBZo3FT" />
    <path
       d="m 420.67,232.86 -3.2,5.54 4.08,56.52 20.98,4.66 -8.16,-66.43 v 0 z"
       id="b2FTuhh25s" />
    <path
       d="m 491.33,155.6 c 0,0 -9.66,-9.67 -23.1,-8.83 0.38,-0.37 3.4,-3.4 3.78,-3.78 0,0 -9.24,-3.36 -17.65,5.46 -4.41,4.64 -9.52,10.09 -12.71,16.23 -0.33,0 -1.98,0 -4.95,0 l 2.07,4.14 -7.23,4.13 c 4.45,-0.45 6.92,-0.7 7.42,-0.75 -0.7,3.57 -0.46,7.26 0.7,10.7 0.17,0.47 1.51,4.16 1.68,4.63 0,0 6.72,-13.45 6.72,-15.13 0,0.42 0,3.78 0,4.2 0,0 4.62,-3.78 4.62,-6.3 0.17,0.2 1.01,1.18 2.52,2.94 l 1.26,-4.62 15.55,4.62 -2.52,-3.78 9.66,1.26 c -2.27,-2.77 -3.53,-4.31 -3.78,-4.62 0,0 10.92,5.46 11.34,10.08 0,0 3.31,10.65 3.31,10.65 0.35,-0.41 3.14,-3.67 3.49,-4.08 0,0 5.39,-19.17 -6.8,-25.47 0.93,-0.34 4.16,-1.52 4.62,-1.68 z"
       id="cGg9aoopu" />
    <path
       d="m 489.43,179.25 c 0,2.9 -0.91,5.25 -2.04,5.25 -1.12,0 -2.03,-2.35 -2.03,-5.25 0,-2.89 0.91,-5.24 2.03,-5.24 1.13,0 2.04,2.35 2.04,5.24 z"
       id="fnCvmoMJk" />
    <path
       d="m -46.83,606.88 c 0,0 6.22,-27.46 -6.2,-50.5 -12.42,-23.03 -38.78,-32.92 -38.78,-32.92 0,0 -6.22,27.46 6.2,50.49 12.42,23.04 31.02,26.34 38.78,32.93 z"
       id="dzgMgUwBx" />
    <path
       d="m -46.02,606.66 c 0,0 -27.72,4.93 -50.14,-8.56 -22.43,-13.49 -31.06,-40.29 -31.06,-40.29 0,0 27.72,-4.93 50.14,8.57 22.43,13.49 24.85,32.23 31.06,40.28 z"
       id="c1JQCjUrEf" />
    <path
       d="m 280.28,568.62 c -6.07,0 -10.99,4.92 -10.99,10.99 0,6.07 4.92,10.99 10.99,10.99 6.07,0 10.99,-4.92 10.99,-10.99 0,-6.07 -4.92,-10.99 -10.99,-10.99 z"
       id="aVrBR4z2U" />
    <filter
       id="filter3839"
       width="1.2196105"
       y="-0.37369331"
       x="-0.10980097"
       height="1.7473868"
       color-interpolation-filters="sRGB"
       inkscape:collect="always">
      <feGaussianBlur
         id="feGaussianBlur3841"
         stdDeviation="17.15866"
         inkscape:collect="always" />
    </filter>
    <linearGradient
       id="linearGradient3875"
       y2="1120.9"
       gradientUnits="userSpaceOnUse"
       x2="1280"
       gradientTransform="matrix(1,0,0,0.48859,-17.156,400.03)"
       y1="623.78998"
       x1="1271.4"
       inkscape:collect="always">
      <stop
         id="stop3773"
         style="stop-color:#999999"
         offset="0" />
      <stop
         id="stop3781"
         style="stop-color:#ffffff"
         offset=".45399" />
      <stop
         id="stop3779"
         style="stop-color:#999999"
         offset=".58583" />
      <stop
         id="stop3775"
         style="stop-color:#b3b3b3"
         offset="1" />
    </linearGradient>
  </defs>
  <g
     id="g534"
     transform="translate(1119.9787,1083.1498)">
    <g
       id="g532"
       transform="matrix(1.0056579,0,0,1.0056579,76.036974,-513.97299)">
      <g
         id="g354"
         transform="matrix(1.117675,0,0,0.82978138,-752.76024,-202.77595)"
         style="stroke-width:0.855455">
        <path
           d="m 751.75,605.58 c 0,0 0,0 0,0 0,1.2 0,1.87 0,2 0,0 0,0 0,0 -514.39,0 -800.16,0 -857.31,0 0,0 0,0 0,0 0,-1.2 0,-1.87 0,-2 0,0 0,0 0,0 514.38,0 800.15,0 857.31,0 z"
           id="use348"
           style="fill:#3f3d56;fill-opacity:1;stroke-width:0.855455" />
        <g
           id="g352"
           style="stroke-width:0.855455">
          <path
             d="m 751.75,605.58 c 0,0 0,0 0,0 0,1.2 0,1.87 0,2 0,0 0,0 0,0 -514.39,0 -800.16,0 -857.31,0 0,0 0,0 0,0 0,-1.2 0,-1.87 0,-2 0,0 0,0 0,0 514.38,0 800.15,0 857.31,0 z"
             id="use350"
             style="fill-opacity:0;stroke:#000000;stroke-width:0.855455;stroke-opacity:0" />
        </g>
      </g>
      <g
         id="g394"
         transform="matrix(0.85644054,0,0,0.85644054,-553.24038,-218.94688)">
        <path
           d="m 422.71,288.51 c 0,17.48 0,27.19 0,29.13 0,0 2.34,32.64 15.15,48.95 0,0 20.98,29.72 23.9,23.31 -0.24,-1.41 -1.44,-8.44 -3.59,-21.1 l -12.15,-11.53 -6.41,-36.13 -1.75,-32.63 z"
           id="use388"
           style="fill:#ffb8b8;fill-opacity:1" />
        <g
           id="g392">
          <path
             d="m 422.71,288.51 c 0,17.48 0,27.19 0,29.13 0,0 2.34,32.64 15.15,48.95 0,0 20.98,29.72 23.9,23.31 -0.24,-1.41 -1.44,-8.44 -3.59,-21.1 l -12.15,-11.53 -6.41,-36.13 -1.75,-32.63 z"
             id="use390"
             style="fill-opacity:0;stroke:#000000;stroke-width:1;stroke-opacity:0" />
        </g>
      </g>
      <g
         id="g402"
         transform="matrix(0.85644054,0,0,0.85644054,-553.24038,-218.94688)">
        <path
           d="m 551.49,573.45 -17.48,6.41 V 554.8 l 17.48,-2.91 v 0 z"
           id="use396"
           style="fill:#ffb8b8;fill-opacity:1" />
        <g
           id="g400">
          <path
             d="m 551.49,573.45 -17.48,6.41 V 554.8 l 17.48,-2.91 v 0 z"
             id="use398"
             style="fill-opacity:0;stroke:#000000;stroke-width:1;stroke-opacity:0" />
        </g>
      </g>
      <g
         id="g410"
         transform="matrix(0.85644054,0,0,0.85644054,-553.24038,-218.94688)">
        <path
           d="m 527.6,575.78 -16.31,6.99 -3.5,-25.63 8.16,-7.58 v 0 z"
           id="use404"
           style="fill:#ffb8b8;fill-opacity:1" />
        <g
           id="g408">
          <path
             d="m 527.6,575.78 -16.31,6.99 -3.5,-25.63 8.16,-7.58 v 0 z"
             id="use406"
             style="fill-opacity:0;stroke:#000000;stroke-width:1;stroke-opacity:0" />
        </g>
      </g>
      <g
         id="g418"
         transform="matrix(0.85644054,0,0,0.85644054,-553.24038,-218.94688)">
        <path
           d="m 559.65,559.47 c 0,0 -25.64,11.65 -25.64,4.08 0,-7.58 -13.4,-106.06 -13.4,-106.06 -0.86,-3.38 -5.13,-20.27 -12.82,-50.69 v 69.92 c 8.04,47.55 12.51,73.97 13.4,79.25 0,0 -12.82,16.9 -22.14,6.99 -1.98,-7.75 -17.83,-69.75 -19.81,-77.5 0,0 -26.22,-117.7 -25.06,-127.03 0,0 60.02,-51.27 90.9,-9.9 2.92,42.19 23.31,210.35 14.57,210.94 z"
           id="use412"
           style="fill:#2f2e41;fill-opacity:1" />
        <g
           id="g416">
          <path
             d="m 559.65,559.47 c 0,0 -25.64,11.65 -25.64,4.08 0,-7.58 -13.4,-106.06 -13.4,-106.06 -0.86,-3.38 -5.13,-20.27 -12.82,-50.69 v 69.92 c 8.04,47.55 12.51,73.97 13.4,79.25 0,0 -12.82,16.9 -22.14,6.99 -1.98,-7.75 -17.83,-69.75 -19.81,-77.5 0,0 -26.22,-117.7 -25.06,-127.03 0,0 60.02,-51.27 90.9,-9.9 2.92,42.19 23.31,210.35 14.57,210.94 z"
             id="use414"
             style="fill-opacity:0;stroke:#000000;stroke-width:1;stroke-opacity:0" />
        </g>
      </g>
      <g
         id="g426"
         transform="matrix(0.85644054,0,0,0.85644054,-553.24038,-218.94688)">
        <path
           d="m 555.57,571.12 c 0.88,1.05 7.87,9.44 8.74,10.49 0,0 22.54,18.66 6.55,22.66 -16.49,4.12 -26.36,-0.26 -26.36,-0.26 0,0 -2.91,-1.75 -5.24,-1.75 -2.34,0 -7.58,-4.08 -7.58,-5.25 0,-1.16 1.75,-21.81 1.75,-21.81 1.35,-0.66 2.96,-0.43 4.08,0.58 1.75,1.75 2.91,-1.16 2.91,-1.16 3.03,-0.7 4.66,-9.91 15.15,-3.5 z"
           id="use420"
           style="fill:#2f2e41;fill-opacity:1" />
        <g
           id="g424">
          <path
             d="m 555.57,571.12 c 0.88,1.05 7.87,9.44 8.74,10.49 0,0 22.54,18.66 6.55,22.66 -16.49,4.12 -26.36,-0.26 -26.36,-0.26 0,0 -2.91,-1.75 -5.24,-1.75 -2.34,0 -7.58,-4.08 -7.58,-5.25 0,-1.16 1.75,-21.81 1.75,-21.81 1.35,-0.66 2.96,-0.43 4.08,0.58 1.75,1.75 2.91,-1.16 2.91,-1.16 3.03,-0.7 4.66,-9.91 15.15,-3.5 z"
             id="use422"
             style="fill-opacity:0;stroke:#000000;stroke-width:1;stroke-opacity:0" />
        </g>
      </g>
      <g
         id="g434"
         transform="matrix(0.85644054,0,0,0.85644054,-553.24038,-218.94688)">
        <path
           d="m 522.36,572.29 c 0,0 3.3,1.16 3.69,0 0.39,-1.17 3.3,-1.75 3.3,4.66 0,6.41 3.16,22.39 0.25,22.98 -2.91,0.58 -5.83,2.33 -5.24,4.66 0.58,2.33 -3.17,2.66 -16.57,2.08 -13.4,-0.59 -13.99,-5.83 -13.99,-5.83 0,0 0,-7.58 3.5,-11.66 3.5,-4.07 8.74,-18.06 8.74,-18.06 3.26,0.23 11.07,-8.74 16.32,1.17 z"
           id="use428"
           style="fill:#2f2e41;fill-opacity:1" />
        <g
           id="g432">
          <path
             d="m 522.36,572.29 c 0,0 3.3,1.16 3.69,0 0.39,-1.17 3.3,-1.75 3.3,4.66 0,6.41 3.16,22.39 0.25,22.98 -2.91,0.58 -5.83,2.33 -5.24,4.66 0.58,2.33 -3.17,2.66 -16.57,2.08 -13.4,-0.59 -13.99,-5.83 -13.99,-5.83 0,0 0,-7.58 3.5,-11.66 3.5,-4.07 8.74,-18.06 8.74,-18.06 3.26,0.23 11.07,-8.74 16.32,1.17 z"
             id="use430"
             style="fill-opacity:0;stroke:#000000;stroke-width:1;stroke-opacity:0" />
        </g>
      </g>
      <g
         id="g442"
         transform="matrix(0.85644054,0,0,0.85644054,-553.24038,-218.94688)">
        <path
           d="m 484.48,189.45 c 0,0 -2.91,21.56 15.73,29.13 0,0 -41.37,32.64 -47.19,18.07 0,0 1.16,-19.23 1.16,-19.23 0,0 5.83,-5.83 0.58,-21.56 5.95,-1.28 23.78,-5.13 29.72,-6.41 z"
           id="use436"
           style="fill:#ffb8b8;fill-opacity:1" />
        <g
           id="g440">
          <path
             d="m 484.48,189.45 c 0,0 -2.91,21.56 15.73,29.13 0,0 -41.37,32.64 -47.19,18.07 0,0 1.16,-19.23 1.16,-19.23 0,0 5.83,-5.83 0.58,-21.56 5.95,-1.28 23.78,-5.13 29.72,-6.41 z"
             id="use438"
             style="fill-opacity:0;stroke:#000000;stroke-width:1;stroke-opacity:0" />
        </g>
      </g>
      <g
         id="g450"
         transform="matrix(0.85644054,0,0,0.85644054,-553.24038,-218.94688)">
        <path
           d="m 465.83,153.32 c -14.16,0 -25.63,11.48 -25.63,25.64 0,14.16 11.47,25.64 25.63,25.64 14.16,0 25.64,-11.48 25.64,-25.64 0,-14.16 -11.48,-25.64 -25.64,-25.64 z"
           id="use444"
           style="fill:#ffb8b8;fill-opacity:1" />
        <g
           id="g448">
          <path
             d="m 465.83,153.32 c -14.16,0 -25.63,11.48 -25.63,25.64 0,14.16 11.47,25.64 25.63,25.64 14.16,0 25.64,-11.48 25.64,-25.64 0,-14.16 -11.48,-25.64 -25.64,-25.64 z"
             id="use446"
             style="fill-opacity:0;stroke:#000000;stroke-width:1;stroke-opacity:0" />
        </g>
      </g>
      <g
         id="g458"
         transform="matrix(0.85644054,0,0,0.85644054,-553.24038,-218.94688)">
        <path
           d="m 495.55,225.58 c 0,0 -17.48,9.32 -34.38,2.33 0,0 -16.31,23.31 -16.31,23.31 0.58,1.51 3.49,9.09 8.74,22.72 l 60.6,-5.83 -4.08,-34.96 c -7.77,-4.04 -12.63,-6.56 -14.57,-7.57 z"
           id="use452"
           style="fill:#f2f2f2;fill-opacity:1" />
        <g
           id="g456">
          <path
             d="m 495.55,225.58 c 0,0 -17.48,9.32 -34.38,2.33 0,0 -16.31,23.31 -16.31,23.31 0.58,1.51 3.49,9.09 8.74,22.72 l 60.6,-5.83 -4.08,-34.96 c -7.77,-4.04 -12.63,-6.56 -14.57,-7.57 z"
             id="use454"
             style="fill-opacity:0;stroke:#000000;stroke-width:1;stroke-opacity:0" />
        </g>
      </g>
      <g
         id="g466"
         transform="matrix(0.85644054,0,0,0.85644054,-553.24038,-218.94688)">
        <path
           d="m 501.38,216.84 c 1.86,0.58 11.19,3.49 27.97,8.74 l 6.99,9.9 c -4.89,43.01 -7.61,66.9 -8.16,71.68 0,0 15.15,14.56 15.15,22.72 0,0 18.65,36.13 9.33,32.63 0,0 -26.22,-15.73 -26.22,-15.73 0,0 -42.54,1.75 -55.94,13.4 0,0 -18.65,8.16 -18.65,8.16 0,0 -13.99,-60.6 -14.57,-69.92 0,0 -16.9,-65.27 -16.9,-65.27 1.95,-1.09 11.66,-6.52 29.14,-16.31 l 7.42,-8.42 20.55,32.89 c 11.19,-13.64 17.4,-21.21 18.65,-22.73 0,0 -9.22,-7.24 -9.27,-12.94 6.28,1.33 11.62,5.45 14.51,11.2 z"
           id="use460"
           style="fill:#3f3d56;fill-opacity:1" />
        <g
           id="g464">
          <path
             d="m 501.38,216.84 c 1.86,0.58 11.19,3.49 27.97,8.74 l 6.99,9.9 c -4.89,43.01 -7.61,66.9 -8.16,71.68 0,0 15.15,14.56 15.15,22.72 0,0 18.65,36.13 9.33,32.63 0,0 -26.22,-15.73 -26.22,-15.73 0,0 -42.54,1.75 -55.94,13.4 0,0 -18.65,8.16 -18.65,8.16 0,0 -13.99,-60.6 -14.57,-69.92 0,0 -16.9,-65.27 -16.9,-65.27 1.95,-1.09 11.66,-6.52 29.14,-16.31 l 7.42,-8.42 20.55,32.89 c 11.19,-13.64 17.4,-21.21 18.65,-22.73 0,0 -9.22,-7.24 -9.27,-12.94 6.28,1.33 11.62,5.45 14.51,11.2 z"
             id="use462"
             style="fill-opacity:0;stroke:#000000;stroke-width:1;stroke-opacity:0" />
        </g>
      </g>
      <g
         id="g474"
         transform="matrix(0.85644054,0,0,0.85644054,-553.24038,-218.94688)">
        <path
           d="m 545.08,280.35 c 2.1,11.19 3.27,17.4 3.5,18.65 0,0 15.73,58.27 13.4,78.08 0,0 1.75,44.29 -8.16,39.04 -9.9,-5.24 -4.66,-37.29 -4.66,-37.29 -0.93,-3.85 -5.59,-23.08 -13.98,-57.69 l -7.58,-33.8 z"
           id="use468"
           style="fill:#ffb8b8;fill-opacity:1" />
        <g
           id="g472">
          <path
             d="m 545.08,280.35 c 2.1,11.19 3.27,17.4 3.5,18.65 0,0 15.73,58.27 13.4,78.08 0,0 1.75,44.29 -8.16,39.04 -9.9,-5.24 -4.66,-37.29 -4.66,-37.29 -0.93,-3.85 -5.59,-23.08 -13.98,-57.69 l -7.58,-33.8 z"
             id="use470"
             style="fill-opacity:0;stroke:#000000;stroke-width:1;stroke-opacity:0" />
        </g>
      </g>
      <g
         id="g482"
         transform="matrix(0.85644054,0,0,0.85644054,-553.24038,-218.94688)">
        <path
           d="m 530.51,231.99 c 3.5,2.09 5.44,3.26 5.83,3.49 0,0 22.14,46.04 16.9,49.53 -5.24,3.5 -27.97,11.07 -27.97,11.07 0.7,-8.54 2.45,-29.91 5.24,-64.09 z"
           id="use476"
           style="fill:#3f3d56;fill-opacity:1" />
        <g
           id="g480">
          <path
             d="m 530.51,231.99 c 3.5,2.09 5.44,3.26 5.83,3.49 0,0 22.14,46.04 16.9,49.53 -5.24,3.5 -27.97,11.07 -27.97,11.07 0.7,-8.54 2.45,-29.91 5.24,-64.09 z"
             id="use478"
             style="fill-opacity:0;stroke:#000000;stroke-width:1;stroke-opacity:0" />
        </g>
      </g>
      <g
         id="g490"
         transform="matrix(0.85644054,0,0,0.85644054,-553.24038,-218.94688)">
        <path
           d="m 420.67,232.86 -3.2,5.54 4.08,56.52 20.98,4.66 -8.16,-66.43 v 0 z"
           id="use484"
           style="fill:#3f3d56;fill-opacity:1" />
        <g
           id="g488">
          <path
             d="m 420.67,232.86 -3.2,5.54 4.08,56.52 20.98,4.66 -8.16,-66.43 v 0 z"
             id="use486"
             style="fill-opacity:0;stroke:#000000;stroke-width:1;stroke-opacity:0" />
        </g>
      </g>
      <g
         id="g498"
         transform="matrix(0.85644054,0,0,0.85644054,-553.24038,-218.94688)">
        <path
           d="m 491.33,155.6 c 0,0 -9.66,-9.67 -23.1,-8.83 0.38,-0.37 3.4,-3.4 3.78,-3.78 0,0 -9.24,-3.36 -17.65,5.46 -4.41,4.64 -9.52,10.09 -12.71,16.23 -0.33,0 -1.98,0 -4.95,0 l 2.07,4.14 -7.23,4.13 c 4.45,-0.45 6.92,-0.7 7.42,-0.75 -0.7,3.57 -0.46,7.26 0.7,10.7 0.17,0.47 1.51,4.16 1.68,4.63 0,0 6.72,-13.45 6.72,-15.13 0,0.42 0,3.78 0,4.2 0,0 4.62,-3.78 4.62,-6.3 0.17,0.2 1.01,1.18 2.52,2.94 l 1.26,-4.62 15.55,4.62 -2.52,-3.78 9.66,1.26 c -2.27,-2.77 -3.53,-4.31 -3.78,-4.62 0,0 10.92,5.46 11.34,10.08 0,0 3.31,10.65 3.31,10.65 0.35,-0.41 3.14,-3.67 3.49,-4.08 0,0 5.39,-19.17 -6.8,-25.47 0.93,-0.34 4.16,-1.52 4.62,-1.68 z"
           id="use492"
           style="fill:#2f2e41;fill-opacity:1" />
        <g
           id="g496">
          <path
             d="m 491.33,155.6 c 0,0 -9.66,-9.67 -23.1,-8.83 0.38,-0.37 3.4,-3.4 3.78,-3.78 0,0 -9.24,-3.36 -17.65,5.46 -4.41,4.64 -9.52,10.09 -12.71,16.23 -0.33,0 -1.98,0 -4.95,0 l 2.07,4.14 -7.23,4.13 c 4.45,-0.45 6.92,-0.7 7.42,-0.75 -0.7,3.57 -0.46,7.26 0.7,10.7 0.17,0.47 1.51,4.16 1.68,4.63 0,0 6.72,-13.45 6.72,-15.13 0,0.42 0,3.78 0,4.2 0,0 4.62,-3.78 4.62,-6.3 0.17,0.2 1.01,1.18 2.52,2.94 l 1.26,-4.62 15.55,4.62 -2.52,-3.78 9.66,1.26 c -2.27,-2.77 -3.53,-4.31 -3.78,-4.62 0,0 10.92,5.46 11.34,10.08 0,0 3.31,10.65 3.31,10.65 0.35,-0.41 3.14,-3.67 3.49,-4.08 0,0 5.39,-19.17 -6.8,-25.47 0.93,-0.34 4.16,-1.52 4.62,-1.68 z"
             id="use494"
             style="fill-opacity:0;stroke:#000000;stroke-width:1;stroke-opacity:0" />
        </g>
      </g>
      <g
         id="g506"
         transform="matrix(0.85644054,0,0,0.85644054,-553.24038,-218.94688)">
        <path
           d="m 489.43,179.25 c 0,2.9 -0.91,5.25 -2.04,5.25 -1.12,0 -2.03,-2.35 -2.03,-5.25 0,-2.89 0.91,-5.24 2.03,-5.24 1.13,0 2.04,2.35 2.04,5.24 z"
           id="use500"
           style="fill:#ffb8b8;fill-opacity:1" />
        <g
           id="g504">
          <path
             d="m 489.43,179.25 c 0,2.9 -0.91,5.25 -2.04,5.25 -1.12,0 -2.03,-2.35 -2.03,-5.25 0,-2.89 0.91,-5.24 2.03,-5.24 1.13,0 2.04,2.35 2.04,5.24 z"
             id="use502"
             style="fill-opacity:0;stroke:#000000;stroke-width:1;stroke-opacity:0" />
        </g>
      </g>
    </g>
    <text
       xml:space="preserve"
       id="text3126"
       style="font-style:normal;font-weight:normal;font-size:18.6667px;line-height:1.25;font-family:sans-serif;white-space:pre;shape-inside:url(#rect3128);fill:#000000;fill-opacity:1;stroke:none"
       transform="matrix(0.66928819,0,0,0.72477476,-389.06308,-175.64578)"
       x="0"
       y="0" />
    <text
       xml:space="preserve"
       id="text7888"
       style="font-style:normal;font-weight:normal;font-size:40px;line-height:1.25;font-family:sans-serif;white-space:pre;shape-inside:url(#rect7890);fill:#000000;fill-opacity:1;stroke:none"
       transform="matrix(0.72477476,0,0,0.72477476,-396.19101,-364.93652)" />
    <text
       xml:space="preserve"
       id="text24186"
       style="font-style:normal;font-weight:normal;font-size:40px;line-height:1.25;font-family:sans-serif;white-space:pre;shape-inside:url(#rect24188);fill:#000000;fill-opacity:1;stroke:none"
       transform="matrix(0.72477476,0,0,0.72477476,-396.19101,-364.93652)" />
    <text
       xml:space="preserve"
       id="text77637"
       style="font-size:40px;line-height:0;font-family:sans-serif;white-space:pre;shape-inside:url(#rect77639)"
       transform="matrix(0.72477476,0,0,0.72477476,-396.19101,-364.93652)" />
    <g
       id="g3865"
       transform="matrix(0.45733873,0,0,0.45733873,-960.84303,-680.34807)">
      <g
         id="g3843"
         transform="translate(-33.392)">
        <path
           id="path3832"
           style="opacity:0.72146;fill:#1a1a1a;stroke:#b3b3b3;stroke-width:4.2326;filter:url(#filter3839)"
           inkscape:connector-curvature="0"
           d="m 1089.3,852.09 c -11.522,21.931 -30.558,60.877 -31.344,80.094 -1.9908,48.705 391.22,47.123 394.28,-1.4063 1.1343,-17.991 -26.986,-56.767 -44.188,-78.688 h -318.75 z" />
        <path
           id="rect3768"
           sodipodi:nodetypes="cccsscc"
           style="fill:url(#linearGradient3875);stroke:#b3b3b3;stroke-width:4.2326"
           inkscape:connector-curvature="0"
           d="m 1094.3,614.65 297.14,5.7143 v 198.92 c 0,0 58.772,68.816 57.143,94.646 -3.0598,48.529 -396.28,50.101 -394.29,1.3959 1.1287,-27.613 40,-96.042 40,-96.042 z" />
      </g>
      <g
         id="g3857">
        <rect
           id="rect2996"
           style="fill:#000000;stroke:#e6e6e6;stroke-width:3"
           ry="40"
           height="808.57001"
           width="1234.3"
           y="-170.49001"
           x="605.71002" />
        <path
           id="rect3817"
           style="opacity:0.28767;fill:#dbdee3"
           inkscape:connector-curvature="0"
           d="m 602,197.5 v 397.16 c 0,22.16 17.84,40 40,40 h 1154.3 c 22.16,0 40,-17.84 40,-40 V 197.5 Z" />
        <rect
           id="rect2998"
           style="fill:#5f8dd3;stroke:#ffffff;stroke-width:0.85478"
           ry="0"
           height="658.13"
           width="1108"
           y="-102.42"
           x="668.88" />
        <path
           id="rect3823"
           sodipodi:nodetypes="csssscc"
           style="opacity:0.11416;fill:#e6e6e6"
           inkscape:connector-curvature="0"
           d="m 1798,-170.49 c 0,0 40,17.84 40,40 v 728.57 c 0,22.16 -17.84,40 -40,40 H 643.7 c -22.16,0 -40,-17.84 -40,-40 C 1422.9,402.83 1798,-170.49 1798,-170.49 Z" />
      </g>
    </g>
    <text
       xml:space="preserve"
       style="font-size:46.6667px;line-height:1.2;font-family:sans-serif;letter-spacing:0px;word-spacing:0px"
       x="-403.99017"
       y="-597.50616"
       id="text5144"><tspan
         sodipodi:role="line"
         id="tspan5142"
         x="-403.99017"
         y="-597.50616"
         dx="0"
         dy="0"
         style="font-style:normal;font-variant:normal;font-weight:normal;font-stretch:normal;font-size:46.6667px;font-family:'Varela Round';-inkscape-font-specification:'Varela Round';font-variant-ligatures:normal;font-variant-caps:normal;font-variant-numeric:normal;font-variant-east-asian:normal;text-align:center;text-anchor:middle;fill:#ffffff">Front-End Developer</tspan><tspan
         sodipodi:role="line"
         x="-403.99017"
         y="-540.34546"
         id="tspan5148"
         style="font-style:normal;font-variant:normal;font-weight:normal;font-stretch:normal;font-size:46.6667px;font-family:'Varela Round';-inkscape-font-specification:'Varela Round';font-variant-ligatures:normal;font-variant-caps:normal;font-variant-numeric:normal;font-variant-east-asian:normal;text-align:center;text-anchor:middle;fill:#ffffff">for your ideas!</tspan></text>
    <text
       xml:space="preserve"
       transform="translate(-1119.9787,-1083.1498)"
       id="text7748"
       style="line-height:0;font-family:sans-serif;font-size:40px;white-space:pre;shape-inside:url(#rect7750)" />
  </g>
</svg>
