<?xml version="1.0" encoding="UTF-8" standalone="no"?>
<svg
   version="1.1"
   preserveAspectRatio="xMidYMid meet"
   viewBox="0 0 640 640"
   width="640"
   height="640"
   id="svg536"
   sodipodi:docname="showcase-mobile.svg"
   inkscape:version="1.1 (c68e22c387, 2021-05-23)"
   xmlns:inkscape="http://www.inkscape.org/namespaces/inkscape"
   xmlns:sodipodi="http://sodipodi.sourceforge.net/DTD/sodipodi-0.dtd"
   xmlns:xlink="http://www.w3.org/1999/xlink"
   xmlns="http://www.w3.org/2000/svg"
   xmlns:svg="http://www.w3.org/2000/svg">
  <sodipodi:namedview
     id="namedview538"
     pagecolor="#ffffff"
     bordercolor="#666666"
     borderopacity="1.0"
     inkscape:pageshadow="2"
     inkscape:pageopacity="0.0"
     inkscape:pagecheckerboard="0"
     showgrid="false"
     inkscape:zoom="0.89382717"
     inkscape:cx="726.65054"
     inkscape:cy="380.94613"
     inkscape:window-width="1920"
     inkscape:window-height="1017"
     inkscape:window-x="-8"
     inkscape:window-y="-8"
     inkscape:window-maximized="1"
     inkscape:current-layer="g534" />
  <defs
     id="defs338">
    <rect
       x="352.41712"
       y="503.45303"
       width="0"
       height="46.98895"
       id="rect13259" />
    <rect
       x="166.92213"
       y="183.53523"
       width="241.02787"
       height="244.75477"
       id="rect20580" />
    <rect
       x="201.73053"
       y="139.23362"
       width="189.86403"
       height="196.19284"
       id="rect1831" />
    <rect
       x="163.75773"
       y="359.95056"
       width="231.00124"
       height="177.20643"
       id="rect82023" />
    <rect
       x="173.25093"
       y="352.03956"
       width="218.34363"
       height="189.86403"
       id="rect77639" />
    <rect
       x="-118.66502"
       y="193.02843"
       width="178.78863"
       height="102.84302"
       id="rect24188" />
    <rect
       x="382.89246"
       y="455.67367"
       width="82.274413"
       height="49.048208"
       id="rect7890" />
    <rect
       x="169.29543"
       y="89.394314"
       width="227.83684"
       height="359.15946"
       id="rect3128" />
    <path
       d="M515.39 608.27C491.09 604.46 467.72 601.23 445.29 598.56C450.47 588.19 453.35 582.43 453.93 581.28C450.93 580.28 437.94 590.28 437.94 590.28C439.04 585.28 447.83 545.3 448.93 540.31C433.94 542.31 426.94 593.28 426.94 593.28C425.81 592.14 420.15 586.48 409.95 576.29C414.97 587.83 417.76 594.24 418.32 595.52C349.68 588.31 290.45 586.06 240.66 586.57C241.4 585.1 247.31 573.27 248.05 571.79C245.05 570.79 232.06 580.78 232.06 580.78C233.16 575.79 241.95 535.81 243.05 530.81C228.06 532.81 221.07 583.78 221.07 583.78C219.93 582.65 214.27 576.99 204.08 566.79C209.39 579.02 212.34 585.81 212.94 587.17C178.83 588.16 144.8 590.9 110.97 595.38C118.35 572.39 144.11 550.3 144.11 550.3C124.3 556.46 114 566.5 108.67 575.81C107.59 528.6 114.85 481.56 130.12 436.87C130.12 436.87 90.15 526.82 96.14 586.78C96.22 587.85 96.83 596.37 96.9 597.43C62.12 602.86 44.67 608.27 44.67 608.27C138.82 608.27 421.25 608.27 515.39 608.27Z"
       id="abDm5CwAZK" />
    <path
       d="M751.75 605.58C751.75 605.58 751.75 605.58 751.75 605.58C751.75 606.78 751.75 607.45 751.75 607.58C751.75 607.58 751.75 607.58 751.75 607.58C237.36 607.58 -48.41 607.58 -105.56 607.58C-105.56 607.58 -105.56 607.58 -105.56 607.58C-105.56 606.38 -105.56 605.71 -105.56 605.58C-105.56 605.58 -105.56 605.58 -105.56 605.58C408.82 605.58 694.59 605.58 751.75 605.58Z"
       id="c2mKqsVLzx" />
    <path
       d="M425.92 226.59C425.92 227.85 424.89 228.87 423.63 228.88C423.52 228.88 422.98 228.88 422 228.88C422 434.04 422 548.02 422 570.82C422 590.52 406.03 606.5 386.32 606.5C364.96 606.5 194.03 606.5 172.66 606.5C152.96 606.5 136.99 590.52 136.99 570.82C136.99 570.82 136.99 570.82 136.99 570.82C136.99 548.82 136.99 438.84 136.99 240.87C136.29 240.87 135.89 240.87 135.81 240.87C134.92 240.87 134.2 240.15 134.19 239.26C134.19 235.52 134.19 205.64 134.19 201.9C134.19 201.01 134.92 200.28 135.81 200.28C135.81 200.28 135.81 200.28 135.81 200.28C135.89 200.28 136.29 200.28 136.99 200.28L136.99 186.21C136.28 186.21 135.88 186.21 135.8 186.21C134.87 186.21 134.11 185.45 134.11 184.51C134.11 180.83 134.11 151.35 134.11 147.66C134.12 146.73 134.87 145.98 135.8 145.98C135.88 145.98 136.28 145.98 136.99 145.98L136.99 126.77C136.27 126.77 135.86 126.77 135.78 126.77C134.96 126.77 134.29 126.1 134.28 125.27C134.28 125.27 134.28 125.27 134.28 125.27C134.28 123.26 134.28 107.17 134.28 105.16C134.28 104.33 134.95 103.65 135.78 103.65C135.86 103.65 136.27 103.65 136.99 103.65C136.99 79.22 136.99 65.65 136.99 62.94C136.99 43.24 152.96 27.27 172.66 27.27C194.03 27.27 364.96 27.27 386.32 27.27C406.02 27.27 422 43.23 422 62.94C422 69.32 422 101.22 422 158.66C422.98 158.66 423.52 158.66 423.63 158.66C424.89 158.66 425.92 159.68 425.92 160.95C425.92 160.95 425.92 220.02 425.92 226.59Z"
       id="emlHQ4o4" />
    <path
       d="M289.79 45.56C291.48 45.56 292.33 46.41 292.33 48.1C292.33 49.9 292.33 50.9 292.33 51.1C292.33 52.8 291.48 53.64 289.79 53.64C268.95 53.64 257.38 53.64 255.07 53.64C253.37 53.64 252.53 52.8 252.53 51.1C252.53 49.3 252.53 48.3 252.53 48.1C252.53 46.41 253.37 45.56 255.07 45.56C275.9 45.56 287.47 45.56 289.79 45.56Z"
       id="b4jtMOPQv4" />
    <path
       d="M302.93 45.02C300.4 45.02 298.34 47.07 298.34 49.6C298.34 52.14 300.4 54.19 302.93 54.19C305.46 54.19 307.51 52.14 307.51 49.6C307.51 47.07 305.46 45.02 302.93 45.02Z"
       id="aL7e848Ep" />
    <path
       d="M404.92 573.78C404.92 580.41 402.01 586.7 396.96 591C392.87 594.49 387.66 596.4 382.28 596.4C361.83 596.4 198.21 596.4 177.75 596.4C174.11 596.41 170.53 595.54 167.3 593.86C166.54 593.47 165.81 593.03 165.1 592.56C158.86 588.34 155.12 581.31 155.12 573.78C155.12 523.4 155.12 120.37 155.12 69.99C155.12 57.49 165.25 47.36 177.75 47.36C177.75 47.36 177.75 47.36 177.75 47.36C179.79 47.36 190 47.36 208.36 47.36C208.36 49.71 208.36 51.02 208.36 51.28C208.36 61.58 216.71 69.92 227 69.92C237.41 69.92 320.62 69.92 331.02 69.92C341.31 69.92 349.66 61.58 349.66 51.28C349.66 51.02 349.66 49.71 349.66 47.36C369.23 47.36 380.11 47.36 382.28 47.36C394.78 47.35 404.91 57.48 404.92 69.98C404.92 69.98 404.92 69.99 404.92 69.99C404.92 69.99 404.92 523.4 404.92 573.78Z"
       id="b45M0ctV" />
    <path
       d="M422.71 288.51C422.71 305.99 422.71 315.7 422.71 317.64C422.71 317.64 425.05 350.28 437.86 366.59C437.86 366.59 458.84 396.31 461.76 389.9C461.52 388.49 460.32 381.46 458.17 368.8L446.02 357.27L439.61 321.14L437.86 288.51L422.71 288.51Z"
       id="j8y39JXUT" />
    <path
       d="M551.49 573.45L534.01 579.86L534.01 554.8L551.49 551.89L551.49 551.89L551.49 573.45Z"
       id="b1np8zB3gN" />
    <path
       d="M527.6 575.78L511.29 582.77L507.79 557.14L515.95 549.56L515.95 549.56L527.6 575.78Z"
       id="a3i4WE4pnI" />
    <path
       d="M559.65 559.47C559.65 559.47 534.01 571.12 534.01 563.55C534.01 555.97 520.61 457.49 520.61 457.49C519.75 454.11 515.48 437.22 507.79 406.8L507.79 476.72C515.83 524.27 520.3 550.69 521.19 555.97C521.19 555.97 508.37 572.87 499.05 562.96C497.07 555.21 481.22 493.21 479.24 485.46C479.24 485.46 453.02 367.76 454.18 358.43C454.18 358.43 514.2 307.16 545.08 348.53C548 390.72 568.39 558.88 559.65 559.47Z"
       id="a2WgxOeSbr" />
    <path
       d="M555.57 571.12C556.45 572.17 563.44 580.56 564.31 581.61C564.31 581.61 586.85 600.27 570.86 604.27C554.37 608.39 544.5 604.01 544.5 604.01C544.5 604.01 541.59 602.26 539.26 602.26C536.92 602.26 531.68 598.18 531.68 597.01C531.68 595.85 533.43 575.2 533.43 575.2C534.78 574.54 536.39 574.77 537.51 575.78C539.26 577.53 540.42 574.62 540.42 574.62C543.45 573.92 545.08 564.71 555.57 571.12Z"
       id="g2AWVZiTiR" />
    <path
       d="M522.36 572.29C522.36 572.29 525.66 573.45 526.05 572.29C526.44 571.12 529.35 570.54 529.35 576.95C529.35 583.36 532.51 599.34 529.6 599.93C526.69 600.51 523.77 602.26 524.36 604.59C524.94 606.92 521.19 607.25 507.79 606.67C494.39 606.08 493.8 600.84 493.8 600.84C493.8 600.84 493.8 593.26 497.3 589.18C500.8 585.11 506.04 571.12 506.04 571.12C509.3 571.35 517.11 562.38 522.36 572.29Z"
       id="bpRLjLCd" />
    <path
       d="M484.48 189.45C484.48 189.45 481.57 211.01 500.21 218.58C500.21 218.58 458.84 251.22 453.02 236.65C453.02 236.65 454.18 217.42 454.18 217.42C454.18 217.42 460.01 211.59 454.76 195.86C460.71 194.58 478.54 190.73 484.48 189.45Z"
       id="c1bfKz33G" />
    <path
       d="M465.83 153.32C451.67 153.32 440.2 164.8 440.2 178.96C440.2 193.12 451.67 204.6 465.83 204.6C479.99 204.6 491.47 193.12 491.47 178.96C491.47 164.8 479.99 153.32 465.83 153.32Z"
       id="e2nfQtBE2F" />
    <path
       d="M495.55 225.58C495.55 225.58 478.07 234.9 461.17 227.91C461.17 227.91 444.86 251.22 444.86 251.22C445.44 252.73 448.35 260.31 453.6 273.94L514.2 268.11L510.12 233.15C502.35 229.11 497.49 226.59 495.55 225.58Z"
       id="fYBGzJOTd" />
    <path
       d="M501.38 216.84C503.24 217.42 512.57 220.33 529.35 225.58L536.34 235.48C531.45 278.49 528.73 302.38 528.18 307.16C528.18 307.16 543.33 321.72 543.33 329.88C543.33 329.88 561.98 366.01 552.66 362.51C552.66 362.51 526.44 346.78 526.44 346.78C526.44 346.78 483.9 348.53 470.5 360.18C470.5 360.18 451.85 368.34 451.85 368.34C451.85 368.34 437.86 307.74 437.28 298.42C437.28 298.42 420.38 233.15 420.38 233.15C422.33 232.06 432.04 226.63 449.52 216.84L456.94 208.42L477.49 241.31C488.68 227.67 494.89 220.1 496.14 218.58C496.14 218.58 486.92 211.34 486.87 205.64C493.15 206.97 498.49 211.09 501.38 216.84Z"
       id="l19goAMcvH" />
    <path
       d="M545.08 280.35C547.18 291.54 548.35 297.75 548.58 299C548.58 299 564.31 357.27 561.98 377.08C561.98 377.08 563.73 421.37 553.82 416.12C543.92 410.88 549.16 378.83 549.16 378.83C548.23 374.98 543.57 355.75 535.18 321.14L527.6 287.34L545.08 280.35Z"
       id="axLiAbGAK" />
    <path
       d="M530.51 231.99C534.01 234.08 535.95 235.25 536.34 235.48C536.34 235.48 558.48 281.52 553.24 285.01C548 288.51 525.27 296.08 525.27 296.08C525.97 287.54 527.72 266.17 530.51 231.99Z"
       id="f2qwBZo3FT" />
    <path
       d="M420.67 232.86L417.47 238.4L421.55 294.92L442.53 299.58L434.37 233.15L434.37 233.15L420.67 232.86Z"
       id="b2FTuhh25s" />
    <path
       d="M491.33 155.6C491.33 155.6 481.67 145.93 468.23 146.77C468.61 146.4 471.63 143.37 472.01 142.99C472.01 142.99 462.77 139.63 454.36 148.45C449.95 153.09 444.84 158.54 441.65 164.68C441.32 164.68 439.67 164.68 436.7 164.68L438.77 168.82L431.54 172.95C435.99 172.5 438.46 172.25 438.96 172.2C438.26 175.77 438.5 179.46 439.66 182.9C439.83 183.37 441.17 187.06 441.34 187.53C441.34 187.53 448.06 174.08 448.06 172.4C448.06 172.82 448.06 176.18 448.06 176.6C448.06 176.6 452.68 172.82 452.68 170.3C452.85 170.5 453.69 171.48 455.2 173.24L456.46 168.62L472.01 173.24L469.49 169.46L479.15 170.72C476.88 167.95 475.62 166.41 475.37 166.1C475.37 166.1 486.29 171.56 486.71 176.18C486.71 176.18 490.02 186.83 490.02 186.83C490.37 186.42 493.16 183.16 493.51 182.75C493.51 182.75 498.9 163.58 486.71 157.28C487.64 156.94 490.87 155.76 491.33 155.6Z"
       id="cGg9aoopu" />
    <path
       d="M489.43 179.25C489.43 182.15 488.52 184.5 487.39 184.5C486.27 184.5 485.36 182.15 485.36 179.25C485.36 176.36 486.27 174.01 487.39 174.01C488.52 174.01 489.43 176.36 489.43 179.25Z"
       id="fnCvmoMJk" />
    <path
       d="M-46.83 606.88C-46.83 606.88 -40.61 579.42 -53.03 556.38C-65.45 533.35 -91.81 523.46 -91.81 523.46C-91.81 523.46 -98.03 550.92 -85.61 573.95C-73.19 596.99 -54.59 600.29 -46.83 606.88Z"
       id="dzgMgUwBx" />
    <path
       d="M-46.02 606.66C-46.02 606.66 -73.74 611.59 -96.16 598.1C-118.59 584.61 -127.22 557.81 -127.22 557.81C-127.22 557.81 -99.5 552.88 -77.08 566.38C-54.65 579.87 -52.23 598.61 -46.02 606.66Z"
       id="c1JQCjUrEf" />
    <path
       d="M280.28 568.62C274.21 568.62 269.29 573.54 269.29 579.61C269.29 585.68 274.21 590.6 280.28 590.6C286.35 590.6 291.27 585.68 291.27 579.61C291.27 573.54 286.35 568.62 280.28 568.62Z"
       id="aVrBR4z2U" />
  </defs>
  <g
     id="g534"
     transform="translate(0,14)">
    <text
       xml:space="preserve"
       id="text3126"
       style="font-style:normal;font-weight:normal;font-size:18.6667px;line-height:1.25;font-family:sans-serif;white-space:pre;shape-inside:url(#rect3128);fill:#000000;fill-opacity:1;stroke:none"
       transform="matrix(0.92344302,0,0,1,9.8346854,261.17182)"
       x="0"
       y="0" />
    <text
       xml:space="preserve"
       id="text7888"
       style="font-style:normal;font-weight:normal;font-size:40px;line-height:1.25;font-family:sans-serif;white-space:pre;shape-inside:url(#rect7890);fill:#000000;fill-opacity:1;stroke:none" />
    <text
       xml:space="preserve"
       id="text24186"
       style="font-style:normal;font-weight:normal;font-size:40px;line-height:1.25;font-family:sans-serif;white-space:pre;shape-inside:url(#rect24188);fill:#000000;fill-opacity:1;stroke:none" />
    <text
       xml:space="preserve"
       id="text77637"
       style="font-size:40px;line-height:0;font-family:sans-serif;white-space:pre;shape-inside:url(#rect77639)" />
    <g
       id="g532">
      <g
         id="g346">
        <use
           xlink:href="#abDm5CwAZK"
           opacity="1"
           fill="#3f3d56"
           fill-opacity="1"
           id="use340"
           x="0"
           y="0"
           width="100%"
           height="100%" />
        <g
           id="g344">
          <use
             xlink:href="#abDm5CwAZK"
             opacity="1"
             fill-opacity="0"
             stroke="#000000"
             stroke-width="1"
             stroke-opacity="0"
             id="use342"
             x="0"
             y="0"
             width="100%"
             height="100%" />
        </g>
      </g>
      <g
         id="g354"
         transform="matrix(0.74742673,0,0,1.0275424,79.321738,-16.70665)">
        <use
           xlink:href="#c2mKqsVLzx"
           opacity="1"
           fill="#3f3d56"
           fill-opacity="1"
           id="use348"
           x="0"
           y="0"
           width="100%"
           height="100%" />
        <g
           id="g352">
          <use
             xlink:href="#c2mKqsVLzx"
             opacity="1"
             fill-opacity="0"
             stroke="#000000"
             stroke-width="1"
             stroke-opacity="0"
             id="use350"
             x="0"
             y="0"
             width="100%"
             height="100%" />
        </g>
      </g>
      <g
         id="g362">
        <use
           xlink:href="#emlHQ4o4"
           opacity="1"
           fill="#3f3d56"
           fill-opacity="1"
           id="use356"
           x="0"
           y="0"
           width="100%"
           height="100%" />
        <g
           id="g360">
          <use
             xlink:href="#emlHQ4o4"
             opacity="1"
             fill-opacity="0"
             stroke="#000000"
             stroke-width="1"
             stroke-opacity="0"
             id="use358"
             x="0"
             y="0"
             width="100%"
             height="100%" />
        </g>
      </g>
      <g
         id="g370">
        <use
           xlink:href="#b4jtMOPQv4"
           opacity="1"
           fill="#e6e8ec"
           fill-opacity="1"
           id="use364"
           x="0"
           y="0"
           width="100%"
           height="100%" />
        <g
           id="g368">
          <use
             xlink:href="#b4jtMOPQv4"
             opacity="1"
             fill-opacity="0"
             stroke="#000000"
             stroke-width="1"
             stroke-opacity="0"
             id="use366"
             x="0"
             y="0"
             width="100%"
             height="100%" />
        </g>
      </g>
      <g
         id="g378">
        <use
           xlink:href="#aL7e848Ep"
           opacity="1"
           fill="#e6e8ec"
           fill-opacity="1"
           id="use372"
           x="0"
           y="0"
           width="100%"
           height="100%" />
        <g
           id="g376">
          <use
             xlink:href="#aL7e848Ep"
             opacity="1"
             fill-opacity="0"
             stroke="#000000"
             stroke-width="1"
             stroke-opacity="0"
             id="use374"
             x="0"
             y="0"
             width="100%"
             height="100%" />
        </g>
      </g>
      <g
         id="g394">
        <use
           xlink:href="#j8y39JXUT"
           opacity="1"
           fill="#ffb8b8"
           fill-opacity="1"
           id="use388"
           x="0"
           y="0"
           width="100%"
           height="100%" />
        <g
           id="g392">
          <use
             xlink:href="#j8y39JXUT"
             opacity="1"
             fill-opacity="0"
             stroke="#000000"
             stroke-width="1"
             stroke-opacity="0"
             id="use390"
             x="0"
             y="0"
             width="100%"
             height="100%" />
        </g>
      </g>
      <g
         id="g402">
        <use
           xlink:href="#b1np8zB3gN"
           opacity="1"
           fill="#ffb8b8"
           fill-opacity="1"
           id="use396"
           x="0"
           y="0"
           width="100%"
           height="100%" />
        <g
           id="g400">
          <use
             xlink:href="#b1np8zB3gN"
             opacity="1"
             fill-opacity="0"
             stroke="#000000"
             stroke-width="1"
             stroke-opacity="0"
             id="use398"
             x="0"
             y="0"
             width="100%"
             height="100%" />
        </g>
      </g>
      <g
         id="g410">
        <use
           xlink:href="#a3i4WE4pnI"
           opacity="1"
           fill="#ffb8b8"
           fill-opacity="1"
           id="use404"
           x="0"
           y="0"
           width="100%"
           height="100%" />
        <g
           id="g408">
          <use
             xlink:href="#a3i4WE4pnI"
             opacity="1"
             fill-opacity="0"
             stroke="#000000"
             stroke-width="1"
             stroke-opacity="0"
             id="use406"
             x="0"
             y="0"
             width="100%"
             height="100%" />
        </g>
      </g>
      <g
         id="g418">
        <use
           xlink:href="#a2WgxOeSbr"
           opacity="1"
           fill="#2f2e41"
           fill-opacity="1"
           id="use412"
           x="0"
           y="0"
           width="100%"
           height="100%" />
        <g
           id="g416">
          <use
             xlink:href="#a2WgxOeSbr"
             opacity="1"
             fill-opacity="0"
             stroke="#000000"
             stroke-width="1"
             stroke-opacity="0"
             id="use414"
             x="0"
             y="0"
             width="100%"
             height="100%" />
        </g>
      </g>
      <g
         id="g426">
        <use
           xlink:href="#g2AWVZiTiR"
           opacity="1"
           fill="#2f2e41"
           fill-opacity="1"
           id="use420"
           x="0"
           y="0"
           width="100%"
           height="100%" />
        <g
           id="g424">
          <use
             xlink:href="#g2AWVZiTiR"
             opacity="1"
             fill-opacity="0"
             stroke="#000000"
             stroke-width="1"
             stroke-opacity="0"
             id="use422"
             x="0"
             y="0"
             width="100%"
             height="100%" />
        </g>
      </g>
      <g
         id="g434">
        <use
           xlink:href="#bpRLjLCd"
           opacity="1"
           fill="#2f2e41"
           fill-opacity="1"
           id="use428"
           x="0"
           y="0"
           width="100%"
           height="100%" />
        <g
           id="g432">
          <use
             xlink:href="#bpRLjLCd"
             opacity="1"
             fill-opacity="0"
             stroke="#000000"
             stroke-width="1"
             stroke-opacity="0"
             id="use430"
             x="0"
             y="0"
             width="100%"
             height="100%" />
        </g>
      </g>
      <g
         id="g442">
        <use
           xlink:href="#c1bfKz33G"
           opacity="1"
           fill="#ffb8b8"
           fill-opacity="1"
           id="use436"
           x="0"
           y="0"
           width="100%"
           height="100%" />
        <g
           id="g440">
          <use
             xlink:href="#c1bfKz33G"
             opacity="1"
             fill-opacity="0"
             stroke="#000000"
             stroke-width="1"
             stroke-opacity="0"
             id="use438"
             x="0"
             y="0"
             width="100%"
             height="100%" />
        </g>
      </g>
      <g
         id="g450">
        <use
           xlink:href="#e2nfQtBE2F"
           opacity="1"
           fill="#ffb8b8"
           fill-opacity="1"
           id="use444"
           x="0"
           y="0"
           width="100%"
           height="100%" />
        <g
           id="g448">
          <use
             xlink:href="#e2nfQtBE2F"
             opacity="1"
             fill-opacity="0"
             stroke="#000000"
             stroke-width="1"
             stroke-opacity="0"
             id="use446"
             x="0"
             y="0"
             width="100%"
             height="100%" />
        </g>
      </g>
      <g
         id="g458">
        <use
           xlink:href="#fYBGzJOTd"
           opacity="1"
           fill="#f2f2f2"
           fill-opacity="1"
           id="use452"
           x="0"
           y="0"
           width="100%"
           height="100%" />
        <g
           id="g456">
          <use
             xlink:href="#fYBGzJOTd"
             opacity="1"
             fill-opacity="0"
             stroke="#000000"
             stroke-width="1"
             stroke-opacity="0"
             id="use454"
             x="0"
             y="0"
             width="100%"
             height="100%" />
        </g>
      </g>
      <g
         id="g466">
        <use
           xlink:href="#l19goAMcvH"
           opacity="1"
           fill="#3f3d56"
           fill-opacity="1"
           id="use460"
           x="0"
           y="0"
           width="100%"
           height="100%" />
        <g
           id="g464">
          <use
             xlink:href="#l19goAMcvH"
             opacity="1"
             fill-opacity="0"
             stroke="#000000"
             stroke-width="1"
             stroke-opacity="0"
             id="use462"
             x="0"
             y="0"
             width="100%"
             height="100%" />
        </g>
      </g>
      <g
         id="g474">
        <use
           xlink:href="#axLiAbGAK"
           opacity="1"
           fill="#ffb8b8"
           fill-opacity="1"
           id="use468"
           x="0"
           y="0"
           width="100%"
           height="100%" />
        <g
           id="g472">
          <use
             xlink:href="#axLiAbGAK"
             opacity="1"
             fill-opacity="0"
             stroke="#000000"
             stroke-width="1"
             stroke-opacity="0"
             id="use470"
             x="0"
             y="0"
             width="100%"
             height="100%" />
        </g>
      </g>
      <g
         id="g482">
        <use
           xlink:href="#f2qwBZo3FT"
           opacity="1"
           fill="#3f3d56"
           fill-opacity="1"
           id="use476"
           x="0"
           y="0"
           width="100%"
           height="100%" />
        <g
           id="g480">
          <use
             xlink:href="#f2qwBZo3FT"
             opacity="1"
             fill-opacity="0"
             stroke="#000000"
             stroke-width="1"
             stroke-opacity="0"
             id="use478"
             x="0"
             y="0"
             width="100%"
             height="100%" />
        </g>
      </g>
      <g
         id="g490">
        <use
           xlink:href="#b2FTuhh25s"
           opacity="1"
           fill="#3f3d56"
           fill-opacity="1"
           id="use484"
           x="0"
           y="0"
           width="100%"
           height="100%" />
        <g
           id="g488">
          <use
             xlink:href="#b2FTuhh25s"
             opacity="1"
             fill-opacity="0"
             stroke="#000000"
             stroke-width="1"
             stroke-opacity="0"
             id="use486"
             x="0"
             y="0"
             width="100%"
             height="100%" />
        </g>
      </g>
      <g
         id="g498">
        <use
           xlink:href="#cGg9aoopu"
           opacity="1"
           fill="#2f2e41"
           fill-opacity="1"
           id="use492"
           x="0"
           y="0"
           width="100%"
           height="100%" />
        <g
           id="g496">
          <use
             xlink:href="#cGg9aoopu"
             opacity="1"
             fill-opacity="0"
             stroke="#000000"
             stroke-width="1"
             stroke-opacity="0"
             id="use494"
             x="0"
             y="0"
             width="100%"
             height="100%" />
        </g>
      </g>
      <g
         id="g506">
        <use
           xlink:href="#fnCvmoMJk"
           opacity="1"
           fill="#ffb8b8"
           fill-opacity="1"
           id="use500"
           x="0"
           y="0"
           width="100%"
           height="100%" />
        <g
           id="g504">
          <use
             xlink:href="#fnCvmoMJk"
             opacity="1"
             fill-opacity="0"
             stroke="#000000"
             stroke-width="1"
             stroke-opacity="0"
             id="use502"
             x="0"
             y="0"
             width="100%"
             height="100%" />
        </g>
      </g>
      <g
         id="g514">
        <g
           id="g512">
          <use
             xlink:href="#dzgMgUwBx"
             opacity="1"
             fill-opacity="0"
             stroke="#000000"
             stroke-width="1"
             stroke-opacity="0"
             id="use510"
             x="0"
             y="0"
             width="100%"
             height="100%" />
        </g>
      </g>
      <g
         id="g522">
        <g
           id="g520">
          <use
             xlink:href="#c1JQCjUrEf"
             opacity="1"
             fill-opacity="0"
             stroke="#000000"
             stroke-width="1"
             stroke-opacity="0"
             id="use518"
             x="0"
             y="0"
             width="100%"
             height="100%" />
        </g>
      </g>
      <g
         id="g530">
        <use
           xlink:href="#aVrBR4z2U"
           opacity="1"
           fill="#ffffff"
           fill-opacity="1"
           id="use524"
           x="0"
           y="0"
           width="100%"
           height="100%" />
        <g
           id="g528">
          <use
             xlink:href="#aVrBR4z2U"
             opacity="1"
             fill-opacity="0"
             stroke="#000000"
             stroke-width="1"
             stroke-opacity="0"
             id="use526"
             x="0"
             y="0"
             width="100%"
             height="100%" />
        </g>
      </g>
    </g>
    <path
       style="fill:#5f8dd3;fill-opacity:1;stroke:#808000;stroke-width:1"
       d="m 175.97099,590.16748 c -0.61533,-0.21313 -2.49405,-0.69055 -4.17492,-1.06093 -4.31104,-0.94994 -10.91323,-7.08682 -13.3173,-12.37872 -1.95165,-4.29605 -2.03737,-15.2641 -2.03737,-260.6864 0,-247.017142 0.0743,-256.362079 2.07192,-260.676789 2.41159,-5.208771 7.17927,-9.984304 11.65688,-11.676063 1.74474,-0.659207 11.10111,-1.189959 20.97721,-1.189959 h 17.82772 v 3.971304 c 0,7.218923 6.24733,15.226952 13.50225,17.307637 2.26803,0.650464 25.90688,1.08675 58.09258,1.072178 50.26045,-0.02276 54.59894,-0.176341 58.74357,-2.079562 2.46133,-1.130245 5.33698,-3.025562 6.39034,-4.211817 2.58581,-2.912041 5.3569,-9.754183 5.3569,-13.226845 v -2.832895 h 19.20073 c 18.51609,0 19.37274,0.100793 24.02413,2.826696 2.82769,1.657131 5.99296,4.822409 7.6501,7.65009 l 2.82669,4.823392 V 315.90461 c 0,251.06385 -0.0578,258.21904 -2.11851,262.25667 -2.43254,4.76613 -4.67543,6.9433 -10.18811,9.88957 -3.73803,1.99781 -8.71428,2.10212 -109.64089,2.29846 -58.14882,0.11312 -106.22859,0.0313 -106.84392,-0.18183 z"
       id="path8625" />
    <g
       id="g3857"
       transform="matrix(0.45737842,0,0,0.45968028,-914.08445,6.9813526)"
       style="stroke-width:0.997407">
      <path
         id="rect3823"
         sodipodi:nodetypes="csssscc"
         style="opacity:0.11416;fill:#e6e6e6;stroke-width:0.997407"
         inkscape:connector-curvature="0"
         d="m 2866.7671,88.558895 c 0,0 17.6164,6.078051 17.6348,38.569235 l 0.6115,1083.44717 c 0.021,37.3589 -26.8223,56.7848 -36.5919,56.8229 l -467.3128,1.8254 c -9.7695,0.038 -44.5416,-18.2472 -37.2034,-53.1722 C 2705.0659,929.77414 2866.7671,88.558895 2866.7671,88.558895 Z" />
    </g>
    <text
       xml:space="preserve"
       transform="matrix(1.1481445,0,0,1.1481445,-47.995005,9.4771949)"
       id="text20578"
       style="font-size:32px;line-height:1.3;font-family:sans-serif;text-align:center;word-spacing:0px;white-space:pre;shape-inside:url(#rect20580);stroke-width:0.870971"
       x="292.75391"
       y="0"><tspan
         x="210.39572"
         y="213.52973"
         id="tspan27376"><tspan
           style="font-family:'Varela Round';-inkscape-font-specification:'Varela Round';fill:#ffffff"
           id="tspan27374">Front-End </tspan></tspan><tspan
         x="210.3317"
         y="255.92563"
         id="tspan27380"><tspan
           style="font-family:'Varela Round';-inkscape-font-specification:'Varela Round';fill:#ffffff"
           id="tspan27378">Developer
</tspan></tspan><tspan
         x="227.69168"
         y="298.32153"
         id="tspan27384"><tspan
           style="font-family:'Varela Round';-inkscape-font-specification:'Varela Round';fill:#ffffff"
           id="tspan27382">for your
</tspan></tspan><tspan
         x="243.13165"
         y="340.71744"
         id="tspan27388"><tspan
           style="font-family:'Varela Round';-inkscape-font-specification:'Varela Round';fill:#ffffff"
           id="tspan27386">ideas!</tspan></tspan></text>
    <text
       xml:space="preserve"
       transform="translate(0,-14)"
       id="text13257"
       style="line-height:0;font-family:sans-serif;font-size:40px;white-space:pre;shape-inside:url(#rect13259)" />
  </g>
</svg>
